# Blender v2.72 (sub 0) OBJ File: 'ruins_block.blend'
# www.blender.org
o Block_Cube
v -1.000000 -1.000000 1.000000
v -1.000000 -1.000000 -1.000000
v -1.000000 1.000000 1.000000
v -1.000000 1.000000 -1.000000
v -1.000000 -1.000000 1.000000
v -1.000000 -1.000000 -1.000000
v -1.000000 1.000000 1.000000
v -1.000000 1.000000 -1.000000
v 1.000000 -0.973911 -0.973911
v 0.973911 -1.000000 -1.000000
v 0.973911 -1.000000 -1.000000
v 0.999735 -0.977624 -0.975900
v 0.998943 -0.981261 -0.978115
v 0.997642 -0.984749 -0.980509
v 0.995859 -0.988016 -0.983034
v 0.993628 -0.990996 -0.985640
v 0.990996 -0.993628 -0.988272
v 0.988016 -0.995859 -0.990877
v 0.984749 -0.997642 -0.993402
v 0.981261 -0.998943 -0.995797
v 0.977624 -0.999735 -0.998011
v 0.977624 -0.998011 -0.999734
v 0.981261 -0.995797 -0.998943
v 0.984749 -0.993402 -0.997642
v 0.988016 -0.990877 -0.995858
v 0.990996 -0.988272 -0.993628
v 0.993628 -0.985640 -0.990996
v 0.995859 -0.983034 -0.988016
v 0.997642 -0.980509 -0.984749
v 0.998943 -0.978115 -0.981261
v 0.999735 -0.975900 -0.977624
v 0.973911 -1.000000 1.000000
v 1.000000 -0.973911 0.973911
v 0.973911 -1.000000 1.000000
v 0.977624 -0.999735 0.998011
v 0.981261 -0.998943 0.995797
v 0.984749 -0.997642 0.993402
v 0.988016 -0.995859 0.990877
v 0.990996 -0.993628 0.988272
v 0.993628 -0.990996 0.985640
v 0.995859 -0.988016 0.983034
v 0.997642 -0.984749 0.980509
v 0.998943 -0.981261 0.978115
v 0.999735 -0.977624 0.975900
v 0.999735 -0.975900 0.977624
v 0.998943 -0.978115 0.981261
v 0.997642 -0.980509 0.984749
v 0.995859 -0.983034 0.988016
v 0.993628 -0.985640 0.990996
v 0.990996 -0.988272 0.993628
v 0.988016 -0.990877 0.995859
v 0.984749 -0.993402 0.997642
v 0.981261 -0.995797 0.998943
v 0.977624 -0.998011 0.999735
v 1.000000 0.973911 -0.973911
v 0.973912 1.000000 -0.999999
v 0.973912 1.000000 -0.999999
v 0.999735 0.975900 -0.977623
v 0.998944 0.978115 -0.981261
v 0.997643 0.980509 -0.984748
v 0.995859 0.983034 -0.988015
v 0.993628 0.985640 -0.990995
v 0.990996 0.988272 -0.993627
v 0.988016 0.990877 -0.995858
v 0.984749 0.993402 -0.997642
v 0.981262 0.995797 -0.998943
v 0.977625 0.998011 -0.999734
v 0.977625 0.999735 -0.998010
v 0.981262 0.998943 -0.995796
v 0.984749 0.997642 -0.993402
v 0.988016 0.995859 -0.990876
v 0.990996 0.993628 -0.988271
v 0.993628 0.990996 -0.985639
v 0.995859 0.988016 -0.983034
v 0.997643 0.984749 -0.980508
v 0.998944 0.981261 -0.978114
v 0.999735 0.977624 -0.975900
v 0.973911 1.000000 1.000001
v 0.999999 0.973911 0.973912
v 0.973911 1.000000 1.000001
v 0.977623 0.998011 0.999735
v 0.981261 0.995797 0.998944
v 0.984748 0.993402 0.997643
v 0.988015 0.990877 0.995859
v 0.990995 0.988272 0.993628
v 0.993627 0.985640 0.990996
v 0.995858 0.983034 0.988017
v 0.997642 0.980509 0.984750
v 0.998942 0.978115 0.981262
v 0.999734 0.975900 0.977625
v 0.999734 0.977624 0.975901
v 0.998942 0.981261 0.978115
v 0.997642 0.984749 0.980510
v 0.995858 0.988016 0.983035
v 0.993627 0.990996 0.985640
v 0.990995 0.993628 0.988272
v 0.988015 0.995859 0.990878
v 0.984748 0.997642 0.993403
v 0.981261 0.998943 0.995797
v 0.977623 0.999735 0.998011
v -2.999704 -0.973911 0.973911
v -2.973616 -1.000000 0.999999
v -2.973616 -1.000000 0.999999
v -2.999439 -0.977624 0.975900
v -2.998648 -0.981262 0.978114
v -2.997347 -0.984749 0.980508
v -2.995563 -0.988016 0.983034
v -2.993332 -0.990996 0.985639
v -2.990700 -0.993628 0.988271
v -2.987720 -0.995859 0.990876
v -2.984453 -0.997643 0.993402
v -2.980966 -0.998944 0.995796
v -2.977329 -0.999735 0.998010
v -2.977329 -0.998011 0.999734
v -2.980966 -0.995797 0.998943
v -2.984453 -0.993403 0.997642
v -2.987720 -0.990877 0.995858
v -2.990700 -0.988272 0.993627
v -2.993332 -0.985640 0.990995
v -2.995563 -0.983035 0.988015
v -2.997347 -0.980509 0.984748
v -2.998648 -0.978115 0.981261
v -2.999439 -0.975901 0.977624
v -2.973615 -1.000000 -1.000001
v -2.999704 -0.973911 -0.973912
v -2.973615 -1.000000 -1.000001
v -2.977328 -0.999735 -0.998012
v -2.980965 -0.998944 -0.995798
v -2.984453 -0.997643 -0.993403
v -2.987720 -0.995859 -0.990878
v -2.990700 -0.993628 -0.988273
v -2.993332 -0.990996 -0.985640
v -2.995562 -0.988016 -0.983035
v -2.997346 -0.984749 -0.980510
v -2.998647 -0.981262 -0.978115
v -2.999438 -0.977624 -0.975901
v -2.999438 -0.975901 -0.977625
v -2.998647 -0.978115 -0.981262
v -2.997346 -0.980509 -0.984750
v -2.995562 -0.983035 -0.988017
v -2.993332 -0.985640 -0.990997
v -2.990700 -0.988272 -0.993629
v -2.987720 -0.990877 -0.995859
v -2.984453 -0.993403 -0.997643
v -2.980965 -0.995797 -0.998944
v -2.977328 -0.998011 -0.999735
v -2.999705 0.973911 0.973910
v -2.973616 1.000000 0.999999
v -2.973616 1.000000 0.999999
v -2.999439 0.975900 0.977623
v -2.998648 0.978114 0.981260
v -2.997347 0.980509 0.984748
v -2.995563 0.983034 0.988015
v -2.993333 0.985639 0.990995
v -2.990700 0.988271 0.993627
v -2.987721 0.990877 0.995858
v -2.984454 0.993402 0.997642
v -2.980966 0.995796 0.998942
v -2.977329 0.998011 0.999734
v -2.977329 0.999734 0.998010
v -2.980966 0.998943 0.995796
v -2.984454 0.997642 0.993402
v -2.987721 0.995858 0.990876
v -2.990700 0.993628 0.988271
v -2.993333 0.990996 0.985639
v -2.995563 0.988016 0.983034
v -2.997347 0.984749 0.980508
v -2.998648 0.981261 0.978114
v -2.999439 0.977624 0.975900
v -2.973616 1.000000 -1.000000
v -2.999704 0.973911 -0.973912
v -2.973616 1.000000 -1.000000
v -2.977329 0.998011 -0.999735
v -2.980966 0.995796 -0.998944
v -2.984453 0.993402 -0.997643
v -2.987720 0.990877 -0.995859
v -2.990700 0.988271 -0.993628
v -2.993332 0.985639 -0.990996
v -2.995563 0.983034 -0.988016
v -2.997347 0.980509 -0.984749
v -2.998648 0.978114 -0.981262
v -2.999439 0.975900 -0.977625
v -2.999439 0.977624 -0.975901
v -2.998648 0.981261 -0.978115
v -2.997347 0.984749 -0.980509
v -2.995563 0.988016 -0.983035
v -2.993332 0.990996 -0.985640
v -2.990700 0.993628 -0.988272
v -2.987720 0.995858 -0.990877
v -2.984453 0.997642 -0.993403
v -2.980966 0.998943 -0.995797
v -2.977329 0.999734 -0.998011
vt 0.839733 0.000000
vt 0.848833 0.013044
vt -0.537296 -0.000000
vt -0.546397 0.013044
vt 0.151167 0.000000
vt 0.839733 0.013044
vt 0.839733 0.986956
vt 0.160267 0.986956
vt 0.160267 0.013044
vt 0.848833 0.000000
vt 0.160370 0.000000
vt 0.151270 0.013045
vt 1.537399 0.000000
vt 1.546500 0.013044
vt 0.974265 0.996942
vt -0.001961 0.996942
vt -0.001961 -0.003057
vt 0.974264 -0.003058
vt 0.848834 -0.013044
vt -0.546397 -0.013044
vt -0.537296 -1.000000
vt 0.839733 -1.000000
vt 0.947629 -0.000000
vt 0.003341 -0.000000
vt 0.003341 1.000000
vt 0.947629 1.000000
vt 0.839732 1.000000
vt -0.537296 1.000000
vt 0.151167 1.000000
vt 0.841028 0.000995
vt 0.841028 0.000133
vt 0.842297 0.002102
vt 0.842297 0.000528
vt 0.848011 0.003299
vt 0.846532 0.001179
vt 0.847367 0.000528
vt 0.848465 0.002102
vt 0.847389 0.004562
vt 0.845651 0.002071
vt 0.846610 0.005864
vt 0.844742 0.003186
vt 0.845692 0.007180
vt 0.843824 0.004502
vt 0.844653 0.008483
vt 0.842915 0.005992
vt 0.843513 0.009746
vt 0.842034 0.007626
vt 0.842297 0.010943
vt 0.841199 0.009369
vt 0.840427 0.011188
vt 0.841028 0.012050
vt 0.158972 0.012050
vt 0.159573 0.011188
vt 0.157703 0.010943
vt 0.158801 0.009369
vt 0.156487 0.009746
vt 0.157966 0.007626
vt 0.155347 0.008483
vt 0.157085 0.005992
vt 0.154308 0.007180
vt 0.156176 0.004502
vt 0.153389 0.005864
vt 0.155258 0.003186
vt 0.152611 0.004562
vt 0.154349 0.002071
vt 0.151989 0.003299
vt 0.153468 0.001179
vt 0.151535 0.002102
vt 0.152633 0.000528
vt 0.841028 0.999867
vt 0.841028 0.999005
vt 0.842297 0.999472
vt 0.842297 0.997898
vt 0.846532 0.998821
vt 0.848011 0.996701
vt 0.848464 0.997898
vt 0.847367 0.999472
vt 0.845651 0.997929
vt 0.847388 0.995438
vt 0.844742 0.996814
vt 0.846610 0.994136
vt 0.843824 0.995498
vt 0.845692 0.992820
vt 0.842915 0.994008
vt 0.844653 0.991517
vt 0.842034 0.992374
vt 0.843513 0.990254
vt 0.841199 0.990631
vt 0.842296 0.989057
vt 0.841028 0.987950
vt 0.840426 0.988812
vt 0.159573 0.988812
vt 0.158972 0.987950
vt 0.158801 0.990631
vt 0.157703 0.989057
vt 0.157966 0.992374
vt 0.156487 0.990254
vt 0.157085 0.994008
vt 0.155347 0.991517
vt 0.156176 0.995498
vt 0.154307 0.992820
vt 0.155258 0.996814
vt 0.153389 0.994136
vt 0.154349 0.997929
vt 0.152611 0.995438
vt 0.153468 0.998821
vt 0.151989 0.996701
vt 0.152633 0.999472
vt 0.151535 0.997898
vt 0.841028 1.000132
vt 0.841028 1.000994
vt 0.159075 0.000133
vt 0.159075 0.000995
vt 0.157807 0.000529
vt 0.157807 0.002102
vt 0.159075 0.999006
vt 0.157807 0.997899
vt 0.157807 0.999472
vt 0.159075 0.999868
vt 0.159075 -0.000994
vt 0.159075 -0.000132
vt 0.160370 1.000000
vt 0.846610 0.992820
vt 0.846610 0.007180
vt 0.845692 0.005864
vt 0.845692 0.994136
vt 0.844653 0.004562
vt 0.844653 0.995438
vt 0.843513 0.003299
vt 0.843513 0.996701
vt 0.153493 0.007180
vt 0.153493 0.992820
vt 0.154411 0.994136
vt 0.154411 0.005864
vt 0.155450 0.995439
vt 0.155450 0.004562
vt 0.156590 0.996702
vt 0.156590 0.003299
vt 0.160370 2.000000
vt 0.159075 1.999005
vt 0.159075 1.000994
vt 0.927508 0.000000
vt 0.003734 0.000000
vt 0.003734 1.000000
vt 0.927508 1.000000
vn 0.000000 0.279600 -0.960100
vn 0.000000 0.167500 -0.985900
vn 0.000000 0.989400 0.145100
vn 0.999200 -0.027700 -0.027900
vn 0.999200 0.027700 -0.027900
vn 0.999200 0.027900 0.027800
vn 0.999200 -0.027800 0.027900
vn 0.000000 0.866400 0.499300
vn 0.000000 -0.174900 0.984600
vn 0.000000 -0.447200 0.894400
vn 0.180000 0.947700 -0.263600
vn -0.180000 0.947700 -0.263600
vn -0.180000 0.947700 0.263700
vn 0.180000 0.947700 0.263600
vn -0.999200 -0.027700 0.027800
vn -0.999200 0.027800 0.027800
vn -0.999200 0.027800 -0.027800
vn -0.999200 -0.027700 -0.027800
vn 0.000900 -0.411000 0.911600
vn 0.000000 0.911400 0.411400
vn 0.000000 0.911700 0.410900
vn -0.000000 0.296000 -0.955200
vn 0.000000 -0.440200 -0.897900
vn 0.000000 0.529000 -0.848600
vn 0.180000 0.263600 0.947700
vn -0.000000 -0.000000 1.000000
vn -0.180000 0.263600 0.947700
vn -0.180000 -0.263600 0.947700
vn 0.180000 -0.263600 0.947700
vn -0.000000 -0.122600 0.992500
vn 0.180000 -0.263600 -0.947700
vn -0.180000 -0.263700 -0.947700
vn -0.180000 0.263700 -0.947700
vn 0.000000 0.000000 -1.000000
vn 0.180000 0.263600 -0.947700
vn -0.000000 1.000000 0.000000
vn 0.000000 0.549700 -0.835400
vn 0.000000 -0.911800 -0.410700
vn 0.315500 -0.342100 -0.885100
vn 0.315500 -0.885100 -0.342100
vn 0.180000 -0.947700 -0.263700
vn 0.440800 -0.315800 -0.840200
vn 0.440800 -0.840200 -0.315800
vn 0.553500 -0.287100 -0.781800
vn 0.553500 -0.781800 -0.287200
vn 0.653300 -0.257100 -0.712100
vn 0.653300 -0.712100 -0.257100
vn 0.740500 -0.225900 -0.633000
vn 0.740500 -0.633000 -0.225900
vn 0.815300 -0.193600 -0.545600
vn 0.815300 -0.545600 -0.193700
vn 0.877900 -0.160200 -0.451200
vn 0.877900 -0.451200 -0.160200
vn 0.928200 -0.125200 -0.350500
vn 0.928200 -0.350400 -0.125200
vn 0.965800 -0.087900 -0.243900
vn 0.965800 -0.243900 -0.087900
vn 0.990100 -0.131900 -0.047900
vn 0.990100 -0.047900 -0.131900
vn 0.990100 -0.047900 0.131900
vn 0.990100 -0.131900 0.047900
vn 0.965800 -0.087900 0.243900
vn 0.965800 -0.243900 0.087900
vn 0.928200 -0.125200 0.350500
vn 0.928200 -0.350400 0.125200
vn 0.877900 -0.160200 0.451200
vn 0.877900 -0.451200 0.160200
vn 0.815300 -0.193600 0.545600
vn 0.815300 -0.545600 0.193600
vn 0.740500 -0.225900 0.633000
vn 0.740500 -0.633000 0.225900
vn 0.653300 -0.257100 0.712100
vn 0.653300 -0.712100 0.257100
vn 0.553500 -0.287200 0.781800
vn 0.553500 -0.781800 0.287200
vn 0.440800 -0.315800 0.840200
vn 0.440800 -0.840200 0.315800
vn 0.315400 -0.885100 0.342100
vn 0.315400 -0.342100 0.885100
vn 0.180000 -0.947700 0.263600
vn 0.315400 0.885100 -0.342100
vn 0.315500 0.342100 -0.885100
vn 0.440800 0.840200 -0.315800
vn 0.440800 0.315800 -0.840200
vn 0.553500 0.781800 -0.287200
vn 0.553500 0.287200 -0.781800
vn 0.653300 0.712100 -0.257100
vn 0.653300 0.257100 -0.712100
vn 0.740500 0.633000 -0.225900
vn 0.740500 0.225900 -0.633000
vn 0.815300 0.545600 -0.193700
vn 0.815300 0.193600 -0.545600
vn 0.877900 0.451200 -0.160200
vn 0.877900 0.160200 -0.451200
vn 0.928200 0.350400 -0.125200
vn 0.928200 0.125200 -0.350500
vn 0.965800 0.243900 -0.087900
vn 0.965800 0.087900 -0.243900
vn 0.990100 0.047900 -0.131900
vn 0.990100 0.131900 -0.047900
vn 0.990100 0.131900 0.047900
vn 0.990100 0.047900 0.131900
vn 0.965800 0.243900 0.087900
vn 0.965800 0.087900 0.243900
vn 0.928200 0.350400 0.125200
vn 0.928200 0.125200 0.350500
vn 0.877900 0.451200 0.160200
vn 0.877900 0.160200 0.451200
vn 0.815300 0.545600 0.193700
vn 0.815300 0.193700 0.545600
vn 0.740500 0.632900 0.225900
vn 0.740500 0.225900 0.633000
vn 0.653300 0.712100 0.257100
vn 0.653300 0.257100 0.712100
vn 0.553500 0.781800 0.287200
vn 0.553500 0.287200 0.781800
vn 0.440800 0.840200 0.315800
vn 0.440800 0.315800 0.840200
vn 0.315400 0.342100 0.885100
vn 0.315400 0.885100 0.342100
vn -0.315500 -0.342100 0.885100
vn -0.315400 -0.885100 0.342100
vn -0.180000 -0.947700 0.263600
vn -0.440800 -0.315800 0.840200
vn -0.440800 -0.840200 0.315800
vn -0.553500 -0.287200 0.781800
vn -0.553500 -0.781800 0.287200
vn -0.653300 -0.257100 0.712100
vn -0.653300 -0.712100 0.257100
vn -0.740500 -0.225900 0.632900
vn -0.740500 -0.633000 0.225900
vn -0.815300 -0.193600 0.545600
vn -0.815300 -0.545600 0.193700
vn -0.877900 -0.160200 0.451200
vn -0.877900 -0.451200 0.160200
vn -0.928200 -0.125200 0.350500
vn -0.928200 -0.350500 0.125200
vn -0.965800 -0.087900 0.243900
vn -0.965800 -0.243900 0.087900
vn -0.990100 -0.131900 0.047900
vn -0.990100 -0.047900 0.131900
vn -0.990100 -0.047900 -0.131900
vn -0.990100 -0.131900 -0.047900
vn -0.965800 -0.087900 -0.243900
vn -0.965800 -0.243900 -0.087900
vn -0.928200 -0.125200 -0.350500
vn -0.928200 -0.350500 -0.125200
vn -0.877900 -0.160200 -0.451200
vn -0.877900 -0.451200 -0.160200
vn -0.815300 -0.193700 -0.545600
vn -0.815300 -0.545600 -0.193700
vn -0.740500 -0.225900 -0.632900
vn -0.740500 -0.633000 -0.225900
vn -0.653300 -0.257100 -0.712100
vn -0.653300 -0.712100 -0.257100
vn -0.553500 -0.287200 -0.781800
vn -0.553500 -0.781800 -0.287200
vn -0.440800 -0.315800 -0.840200
vn -0.440800 -0.840200 -0.315800
vn -0.315400 -0.885100 -0.342100
vn -0.315500 -0.342100 -0.885100
vn -0.180000 -0.947700 -0.263600
vn -0.315500 0.885100 0.342100
vn -0.315500 0.342100 0.885100
vn -0.440800 0.840200 0.315800
vn -0.440800 0.315800 0.840200
vn -0.553500 0.781800 0.287200
vn -0.553500 0.287200 0.781800
vn -0.653300 0.712100 0.257100
vn -0.653300 0.257100 0.712100
vn -0.740500 0.633000 0.225900
vn -0.740500 0.225900 0.633000
vn -0.815300 0.545600 0.193700
vn -0.815300 0.193700 0.545600
vn -0.877900 0.451200 0.160200
vn -0.877900 0.160200 0.451200
vn -0.928200 0.350500 0.125200
vn -0.928200 0.125200 0.350500
vn -0.965800 0.243900 0.087900
vn -0.965800 0.087900 0.243900
vn -0.990100 0.047900 0.131900
vn -0.990100 0.131900 0.047900
vn -0.990100 0.131900 -0.047900
vn -0.990100 0.047900 -0.131900
vn -0.965800 0.243900 -0.087900
vn -0.965800 0.087900 -0.243900
vn -0.928200 0.350500 -0.125200
vn -0.928200 0.125200 -0.350500
vn -0.877900 0.451200 -0.160200
vn -0.877900 0.160200 -0.451200
vn -0.815300 0.545600 -0.193700
vn -0.815300 0.193600 -0.545600
vn -0.740500 0.633000 -0.225900
vn -0.740500 0.225900 -0.633000
vn -0.653300 0.712100 -0.257100
vn -0.653300 0.257100 -0.712100
vn -0.553500 0.781800 -0.287200
vn -0.553500 0.287200 -0.781800
vn -0.440800 0.840200 -0.315800
vn -0.440800 0.315800 -0.840200
vn -0.315400 0.342100 -0.885100
vn -0.315400 0.885100 -0.342100
vn 0.000000 -1.000000 0.000000
s 1
f 10/1/1 9/2/2 11/1/2 126/3/2 125/4/2 124/3/1 6/5/3 2/5/3
f 9/6/4 55/7/5 79/8/6 33/9/7
f 1/10/8 5/10/8 102/11/9 101/12/10 103/11/10 34/13/10 33/14/10 32/13/9
f 57/15/11 172/16/12 149/17/13 80/18/14
f 101/9/15 147/8/16 171/7/17 125/6/18
f 3/10/19 7/10/19 148/11/20 147/12/21 149/11/21 80/13/21 79/14/21 78/13/20
f 56/1/22 55/19/23 57/1/23 172/3/23 171/20/23 170/3/22 8/5/24 4/5/24
f 78/1/25 80/1/26 149/3/26 148/3/27 103/21/28 34/22/29
f 2/5/3 6/5/3 124/3/1 126/3/30 11/1/30 10/1/1
f 11/23/31 126/24/32 170/25/33 172/25/34 57/26/34 56/26/35
f 4/5/24 8/5/24 170/3/22 172/3/36 57/1/36 56/1/22
f 32/1/9 34/1/37 103/3/37 102/3/9 5/5/8 1/5/8
f 78/27/20 80/27/38 149/28/38 148/28/20 7/29/19 3/29/19
f 22/30/39 21/31/40 10/1/41 11/1/31
f 23/32/42 20/33/43 21/31/40 22/30/39
f 24/34/44 19/35/45 20/36/43 23/37/42
f 25/38/46 18/39/47 19/35/45 24/34/44
f 26/40/48 17/41/49 18/39/47 25/38/46
f 27/42/50 16/43/51 17/41/49 26/40/48
f 28/44/52 15/45/53 16/43/51 27/42/50
f 29/46/54 14/47/55 15/45/53 28/44/52
f 30/48/56 13/49/57 14/47/55 29/46/54
f 12/50/58 13/49/57 30/48/56 31/51/59
f 9/6/4 12/50/58 31/51/59
f 45/52/60 44/53/61 33/9/7
f 46/54/62 43/55/63 44/53/61 45/52/60
f 47/56/64 42/57/65 43/55/63 46/54/62
f 48/58/66 41/59/67 42/57/65 47/56/64
f 49/60/68 40/61/69 41/59/67 48/58/66
f 50/62/70 39/63/71 40/61/69 49/60/68
f 51/64/72 38/65/73 39/63/71 50/62/70
f 52/66/74 37/67/75 38/65/73 51/64/72
f 53/68/76 36/69/77 37/67/75 52/66/74
f 35/30/78 36/32/77 53/33/76 54/31/79
f 32/1/80 35/30/78 54/31/79 34/1/29
f 68/70/81 67/71/82 56/27/35 57/27/11
f 69/72/83 66/73/84 67/71/82 68/70/81
f 70/74/85 65/75/86 66/76/84 69/77/83
f 71/78/87 64/79/88 65/75/86 70/74/85
f 72/80/89 63/81/90 64/79/88 71/78/87
f 73/82/91 62/83/92 63/81/90 72/80/89
f 74/84/93 61/85/94 62/83/92 73/82/91
f 75/86/95 60/87/96 61/85/94 74/84/93
f 76/88/97 59/89/98 60/87/96 75/86/95
f 58/90/99 59/89/98 76/88/97 77/91/100
f 55/7/5 58/90/99 77/91/100
f 91/92/101 90/93/102 79/8/6
f 92/94/103 89/95/104 90/93/102 91/92/101
f 93/96/105 88/97/106 89/95/104 92/94/103
f 94/98/107 87/99/108 88/97/106 93/96/105
f 95/100/109 86/101/110 87/99/108 94/98/107
f 96/102/111 85/103/112 86/101/110 95/100/109
f 97/104/113 84/105/114 85/103/112 96/102/111
f 98/106/115 83/107/116 84/105/114 97/104/113
f 99/108/117 82/109/118 83/107/116 98/106/115
f 81/71/119 82/73/118 99/72/117 100/70/120
f 78/27/25 81/110/119 100/111/120 80/27/14
f 114/112/121 113/113/122 102/11/123 103/11/28
f 115/114/124 112/115/125 113/113/122 114/112/121
f 116/66/126 111/67/127 112/69/125 115/68/124
f 117/64/128 110/65/129 111/67/127 116/66/126
f 118/62/130 109/63/131 110/65/129 117/64/128
f 119/60/132 108/61/133 109/63/131 118/62/130
f 120/58/134 107/59/135 108/61/133 119/60/132
f 121/56/136 106/57/137 107/59/135 120/58/134
f 122/54/138 105/55/139 106/57/137 121/56/136
f 104/53/140 105/55/139 122/54/138 123/52/141
f 101/9/15 104/53/140 123/52/141
f 137/51/142 136/50/143 125/6/18
f 138/48/144 135/49/145 136/50/143 137/51/142
f 139/46/146 134/47/147 135/49/145 138/48/144
f 140/44/148 133/45/149 134/47/147 139/46/146
f 141/42/150 132/43/151 133/45/149 140/44/148
f 142/40/152 131/41/153 132/43/151 141/42/150
f 143/38/154 130/39/155 131/41/153 142/40/152
f 144/34/156 129/35/157 130/39/155 143/38/154
f 145/37/158 128/36/159 129/35/157 144/34/156
f 127/116/160 128/117/159 145/118/158 146/119/161
f 124/11/162 127/120/160 146/121/161 126/11/32
f 160/119/163 159/116/164 148/122/27 149/122/13
f 161/118/165 158/117/166 159/116/164 160/119/163
f 162/106/167 157/107/168 158/109/166 161/108/165
f 163/104/169 156/105/170 157/107/168 162/106/167
f 164/102/171 155/103/172 156/105/170 163/104/169
f 165/100/173 154/101/174 155/103/172 164/102/171
f 166/98/175 153/99/176 154/101/174 165/100/173
f 167/96/177 152/97/178 153/99/176 166/98/175
f 168/94/179 151/95/180 152/97/178 167/96/177
f 150/93/181 151/95/180 168/94/179 169/92/182
f 147/8/16 150/93/181 169/92/182
f 183/91/183 182/90/184 171/7/17
f 184/88/185 181/89/186 182/90/184 183/91/183
f 185/86/187 180/87/188 181/89/186 184/88/185
f 186/84/189 179/85/190 180/87/188 185/86/187
f 187/82/191 178/83/192 179/85/190 186/84/189
f 188/80/193 177/81/194 178/83/192 187/82/191
f 189/78/195 176/79/196 177/81/194 188/80/193
f 190/74/197 175/75/198 176/79/196 189/78/195
f 191/77/199 174/76/200 175/75/198 190/74/197
f 173/116/201 174/117/200 191/118/199 192/119/202
f 170/11/33 173/121/201 192/120/202 172/11/12
f 9/6/4 33/9/7 44/53/61 12/50/58
f 12/50/58 44/53/61 43/55/63 13/49/57
f 13/49/57 43/55/63 42/57/65 14/47/55
f 14/47/55 42/57/65 41/59/67 15/45/53
f 15/45/53 41/59/67 40/61/69 16/43/51
f 16/123/51 40/124/69 39/125/71 17/126/49
f 17/126/49 39/125/71 38/127/73 18/128/47
f 18/128/47 38/127/73 37/129/75 19/130/45
f 19/130/45 37/129/75 36/32/77 20/73/43
f 20/73/43 36/32/77 35/30/78 21/71/40
f 21/71/40 35/30/78 32/1/80 10/27/41
f 11/1/31 56/27/35 67/71/82 22/30/39
f 22/30/39 67/71/82 66/73/84 23/32/42
f 23/32/42 66/73/84 65/130/86 24/129/44
f 24/129/44 65/130/86 64/128/88 25/127/46
f 25/127/46 64/128/88 63/126/90 26/125/48
f 26/125/48 63/126/90 62/123/92 27/124/50
f 27/42/50 62/83/92 61/85/94 28/44/52
f 28/44/52 61/85/94 60/87/96 29/46/54
f 29/46/54 60/87/96 59/89/98 30/48/56
f 30/48/56 59/89/98 58/90/99 31/51/59
f 31/51/59 58/90/99 55/7/5 9/6/4
f 33/9/7 79/8/6 90/93/102 45/52/60
f 45/52/60 90/93/102 89/95/104 46/54/62
f 46/54/62 89/95/104 88/97/106 47/56/64
f 47/56/64 88/97/106 87/99/108 48/58/66
f 48/58/66 87/99/108 86/101/110 49/60/68
f 49/124/68 86/123/110 85/126/112 50/125/70
f 50/125/70 85/126/112 84/128/114 51/127/72
f 51/127/72 84/128/114 83/130/116 52/129/74
f 52/129/74 83/130/116 82/73/118 53/32/76
f 53/32/76 82/73/118 81/71/119 54/30/79
f 54/30/79 81/71/119 78/27/25 34/1/29
f 57/27/11 80/1/14 100/30/120 68/71/81
f 68/71/81 100/30/120 99/32/117 69/73/83
f 69/73/83 99/32/117 98/129/115 70/130/85
f 70/130/85 98/129/115 97/127/113 71/128/87
f 71/128/87 97/127/113 96/125/111 72/126/89
f 72/126/89 96/125/111 95/124/109 73/123/91
f 73/82/91 95/100/109 94/98/107 74/84/93
f 74/84/93 94/98/107 93/96/105 75/86/95
f 75/86/95 93/96/105 92/94/103 76/88/97
f 76/88/97 92/94/103 91/92/101 77/91/100
f 77/91/100 91/92/101 79/8/6 55/7/5
f 101/9/15 125/6/18 136/50/143 104/53/140
f 104/53/140 136/50/143 135/49/145 105/55/139
f 105/55/139 135/49/145 134/47/147 106/57/137
f 106/57/137 134/47/147 133/45/149 107/59/135
f 107/59/135 133/45/149 132/43/151 108/61/133
f 108/131/133 132/132/151 131/133/153 109/134/131
f 109/134/131 131/133/153 130/135/155 110/136/129
f 110/136/129 130/135/155 129/137/157 111/138/127
f 111/138/127 129/137/157 128/117/159 112/115/125
f 112/115/125 128/117/159 127/116/160 113/113/122
f 113/113/122 127/116/160 124/122/162 102/11/123
f 103/122/28 148/139/27 159/140/164 114/141/121
f 114/113/121 159/116/164 158/117/166 115/115/124
f 115/115/124 158/117/166 157/137/168 116/138/126
f 116/138/126 157/137/168 156/135/170 117/136/128
f 117/136/128 156/135/170 155/133/172 118/134/130
f 118/134/130 155/133/172 154/132/174 119/131/132
f 119/60/132 154/101/174 153/99/176 120/58/134
f 120/58/134 153/99/176 152/97/178 121/56/136
f 121/56/136 152/97/178 151/95/180 122/54/138
f 122/54/138 151/95/180 150/93/181 123/52/141
f 123/52/141 150/93/181 147/8/16 101/9/15
f 125/6/18 171/7/17 182/90/184 137/51/142
f 137/51/142 182/90/184 181/89/186 138/48/144
f 138/48/144 181/89/186 180/87/188 139/46/146
f 139/46/146 180/87/188 179/85/190 140/44/148
f 140/44/148 179/85/190 178/83/192 141/42/150
f 141/131/150 178/132/192 177/133/194 142/134/152
f 142/134/152 177/133/194 176/135/196 143/136/154
f 143/136/154 176/135/196 175/137/198 144/138/156
f 144/138/156 175/137/198 174/117/200 145/115/158
f 145/115/158 174/117/200 173/116/201 146/113/161
f 146/113/161 173/116/201 170/122/33 126/11/32
f 149/11/13 172/122/12 192/116/202 160/113/163
f 160/113/163 192/116/202 191/117/199 161/115/165
f 161/115/165 191/117/199 190/137/197 162/138/167
f 162/138/167 190/137/197 189/135/195 163/136/169
f 163/136/169 189/135/195 188/133/193 164/134/171
f 164/134/171 188/133/193 187/132/191 165/131/173
f 165/100/173 187/82/191 186/84/189 166/98/175
f 166/98/175 186/84/189 185/86/187 167/96/177
f 167/96/177 185/86/187 184/88/185 168/94/179
f 168/94/179 184/88/185 183/91/183 169/92/182
f 169/92/182 183/91/183 171/7/17 147/8/16
f 32/142/80 34/142/203 103/143/203 102/143/123 124/144/162 126/144/203 11/145/203 10/145/41
