# Blender v2.72 (sub 0) OBJ File: 'ruins_column.blend'
# www.blender.org
o Cylinder
v 0.000000 -1.000000 -1.000000
v 0.000000 1.000000 -1.000000
v 0.195090 -1.000000 -0.980785
v 0.195090 1.000000 -0.980785
v 0.382683 -1.000000 -0.923880
v 0.382683 1.000000 -0.923880
v 0.555570 -1.000000 -0.831470
v 0.555570 1.000000 -0.831470
v 0.707107 -1.000000 -0.707107
v 0.707107 1.000000 -0.707107
v 0.831470 -1.000000 -0.555570
v 0.831470 1.000000 -0.555570
v 0.923880 -1.000000 -0.382683
v 0.923880 1.000000 -0.382683
v 0.980785 -1.000000 -0.195090
v 0.980785 1.000000 -0.195090
v 1.000000 -1.000000 -0.000000
v 1.000000 1.000000 -0.000000
v 0.980785 -1.000000 0.195090
v 0.980785 1.000000 0.195090
v 0.923880 -1.000000 0.382683
v 0.923880 1.000000 0.382683
v 0.831470 -1.000000 0.555570
v 0.831470 1.000000 0.555570
v 0.707107 -1.000000 0.707107
v 0.707107 1.000000 0.707107
v 0.555570 -1.000000 0.831470
v 0.555570 1.000000 0.831470
v 0.382683 -1.000000 0.923880
v 0.382683 1.000000 0.923880
v 0.195090 -1.000000 0.980785
v 0.195090 1.000000 0.980785
v -0.000000 -1.000000 1.000000
v -0.000000 1.000000 1.000000
v -0.195091 -1.000000 0.980785
v -0.195091 1.000000 0.980785
v -0.382684 -1.000000 0.923879
v -0.382684 1.000000 0.923879
v -0.555571 -1.000000 0.831469
v -0.555571 1.000000 0.831469
v -0.707107 -1.000000 0.707106
v -0.707107 1.000000 0.707106
v -0.831470 -1.000000 0.555570
v -0.831470 1.000000 0.555570
v -0.923880 -1.000000 0.382683
v -0.923880 1.000000 0.382683
v -0.980785 -1.000000 0.195089
v -0.980785 1.000000 0.195089
v -1.000000 -1.000000 -0.000001
v -1.000000 1.000000 -0.000001
v -0.980785 -1.000000 -0.195091
v -0.980785 1.000000 -0.195091
v -0.923879 -1.000000 -0.382684
v -0.923879 1.000000 -0.382684
v -0.831469 -1.000000 -0.555571
v -0.831469 1.000000 -0.555571
v -0.707106 -1.000000 -0.707108
v -0.707106 1.000000 -0.707108
v -0.555569 -1.000000 -0.831470
v -0.555569 1.000000 -0.831470
v -0.382682 -1.000000 -0.923880
v -0.382682 1.000000 -0.923880
v -0.195089 -1.000000 -0.980786
v -0.195089 1.000000 -0.980786
vt 0.445551 1.000293
vt 0.404755 1.000293
vt 0.404755 0.665886
vt 0.364742 1.000293
vt 0.364742 0.665886
vt 0.327051 1.000293
vt 0.327051 0.665886
vt 0.293130 1.000293
vt 0.264283 1.000293
vt 0.264283 0.665886
vt 0.264046 1.000000
vt 0.230125 1.000000
vt 0.230125 0.665593
vt 0.192434 1.000000
vt 0.192434 0.665593
vt 0.152421 1.000000
vt 0.152421 0.665593
vt 0.111625 1.000000
vt 0.071612 1.000000
vt 0.071612 0.665593
vt 0.033921 1.000000
vt 0.033921 0.665593
vt 0.000000 1.000000
vt 0.000000 0.665593
vt 1.173156 0.999734
vt 1.139235 0.999801
vt 1.138976 0.665395
vt 1.101544 0.999877
vt 1.101285 0.665470
vt 1.061532 0.999957
vt 1.061273 0.665550
vt 1.020735 1.000038
vt 1.020476 0.665632
vt 0.980723 1.000118
vt 0.980464 0.665712
vt 0.943032 1.000193
vt 0.942772 0.665787
vt 0.909111 1.000261
vt 0.908852 0.665855
vt 0.880263 1.000319
vt 0.880004 0.665913
vt 0.846342 1.000387
vt 0.846083 0.665980
vt 0.808651 1.000462
vt 0.808392 0.666056
vt 0.768638 1.000542
vt 0.768379 0.666136
vt 0.727842 1.000624
vt 0.727583 0.666217
vt 0.687830 1.000704
vt 0.687570 0.666297
vt 0.650139 1.000779
vt 0.649879 0.666372
vt 0.616217 1.000847
vt 0.615958 0.666440
vt 0.587370 1.000904
vt 0.587111 0.666498
vt 0.586023 1.000293
vt 0.557176 1.000293
vt 0.557176 0.665886
vt 0.523255 1.000293
vt 0.523255 0.665886
vt 0.227505 0.665593
vt 0.186708 0.665593
vt 0.227505 0.332797
vt 0.485564 1.000293
vt 0.445551 0.665886
vt 0.485564 0.665886
vt 0.267517 0.006395
vt 0.007959 0.214935
vt 0.109005 0.018938
vt 0.293130 0.665886
vt 0.264046 0.665593
vt 0.111625 0.665593
vt 1.172897 0.665327
vt 0.586023 0.665886
vt 0.267518 0.659199
vt 0.305209 0.646655
vt 0.339130 0.628445
vt 0.367977 0.605268
vt 0.414213 0.515584
vt 0.406254 0.547731
vt 0.390642 0.578014
vt 0.367977 0.393122
vt 0.414213 0.482806
vt 0.406254 0.450658
vt 0.390642 0.420376
vt 0.305209 0.351735
vt 0.339130 0.369945
vt 0.267517 0.339191
vt 0.186708 0.332797
vt 0.023571 0.420376
vt 0.075084 0.369945
vt 0.146696 0.339191
vt 0.109005 0.351735
vt 0.046236 0.393122
vt 0.000000 0.482806
vt 0.007959 0.450658
vt 0.000000 0.515584
vt 0.007959 0.547732
vt 0.023571 0.578014
vt 0.109005 0.646655
vt 0.075084 0.628445
vt 0.046237 0.605268
vt 0.146696 0.659199
vt 0.075084 0.295648
vt 0.023571 0.245217
vt 0.046236 0.272471
vt 0.146696 0.326402
vt 0.109005 0.313858
vt 0.000000 0.182787
vt 0.000000 0.150010
vt 0.367977 0.272471
vt 0.339129 0.295648
vt 0.390642 0.245217
vt 0.414213 0.150009
vt 0.414213 0.182787
vt 0.406254 0.214935
vt 0.390642 0.087579
vt 0.406254 0.117862
vt 0.339129 0.037148
vt 0.367977 0.060326
vt 0.305208 0.018938
vt 0.186708 0.000000
vt 0.227505 0.000000
vt 0.146696 0.006395
vt 0.046236 0.060326
vt 0.075084 0.037148
vt 0.007959 0.117862
vt 0.267517 0.326402
vt 0.023571 0.087579
vt 0.305208 0.313859
vn 0.000000 0.685700 -0.727900
vn 0.142000 0.685700 -0.713900
vn 0.142000 -0.685700 -0.713900
vn 0.278500 0.685700 -0.672500
vn 0.278500 -0.685700 -0.672500
vn 0.404400 0.685700 -0.605200
vn 0.404400 -0.685700 -0.605200
vn 0.514700 0.685700 -0.514700
vn 0.605200 0.685700 -0.404400
vn 0.605200 -0.685700 -0.404400
vn 0.672500 0.685700 -0.278500
vn 0.672500 -0.685700 -0.278500
vn 0.713900 0.685700 -0.142000
vn 0.713900 -0.685700 -0.142000
vn 0.727900 0.685700 0.000000
vn 0.727900 -0.685700 0.000000
vn 0.713900 0.685700 0.142000
vn 0.672500 0.685700 0.278500
vn 0.672500 -0.685700 0.278500
vn 0.605200 0.685700 0.404400
vn 0.605200 -0.685700 0.404400
vn 0.514700 0.685700 0.514700
vn 0.514700 -0.685700 0.514700
vn 0.404400 0.685700 0.605200
vn 0.404400 -0.685700 0.605200
vn 0.278500 0.685700 0.672500
vn 0.278500 -0.685700 0.672500
vn 0.142000 0.685700 0.713900
vn 0.142000 -0.685700 0.713900
vn 0.000000 0.685700 0.727900
vn 0.000000 -0.685700 0.727900
vn -0.142000 0.685700 0.713900
vn -0.142000 -0.685700 0.713900
vn -0.278500 0.685700 0.672500
vn -0.278500 -0.685700 0.672500
vn -0.404400 0.685700 0.605200
vn -0.404400 -0.685700 0.605200
vn -0.514700 0.685700 0.514700
vn -0.514700 -0.685700 0.514700
vn -0.605200 0.685700 0.404400
vn -0.605200 -0.685700 0.404400
vn -0.672500 0.685700 0.278500
vn -0.672500 -0.685700 0.278500
vn -0.713900 0.685700 0.142000
vn -0.713900 -0.685700 0.142000
vn -0.727900 0.685700 0.000000
vn -0.727900 -0.685700 0.000000
vn -0.713900 0.685700 -0.142000
vn -0.713900 -0.685700 -0.142000
vn -0.672500 0.685700 -0.278500
vn -0.672500 -0.685700 -0.278500
vn -0.605200 0.685700 -0.404400
vn -0.605200 -0.685700 -0.404400
vn -0.514700 0.685700 -0.514700
vn -0.514700 -0.685700 -0.514700
vn -0.404400 0.685700 -0.605200
vn -0.404400 -0.685700 -0.605200
vn -0.278500 0.685700 -0.672500
vn -0.278500 -0.685700 -0.672500
vn -0.142000 0.685700 -0.713900
vn 0.000000 -0.685700 -0.727900
vn -0.142000 -0.685700 -0.713900
vn 0.514700 -0.685700 -0.514700
vn 0.713900 -0.685700 0.142000
s 1
f 2/1/1 4/2/2 3/3/3
f 4/2/2 6/4/4 5/5/5
f 6/4/4 8/6/6 7/7/7
f 7/7/7 8/6/6 10/8/8
f 10/8/8 12/9/9 11/10/10
f 12/11/9 14/12/11 13/13/12
f 14/12/11 16/14/13 15/15/14
f 16/14/13 18/16/15 17/17/16
f 17/17/16 18/16/15 20/18/17
f 20/18/17 22/19/18 21/20/19
f 22/19/18 24/21/20 23/22/21
f 24/21/20 26/23/22 25/24/23
f 26/25/22 28/26/24 27/27/25
f 28/26/24 30/28/26 29/29/27
f 30/28/26 32/30/28 31/31/29
f 32/30/28 34/32/30 33/33/31
f 34/32/30 36/34/32 35/35/33
f 36/34/32 38/36/34 37/37/35
f 38/36/34 40/38/36 39/39/37
f 40/38/36 42/40/38 41/41/39
f 42/40/38 44/42/40 43/43/41
f 44/42/40 46/44/42 45/45/43
f 46/44/42 48/46/44 47/47/45
f 48/46/44 50/48/46 49/49/47
f 50/48/46 52/50/48 51/51/49
f 52/50/48 54/52/50 53/53/51
f 54/52/50 56/54/52 55/55/53
f 56/54/52 58/56/54 57/57/55
f 58/58/54 60/59/56 59/60/57
f 60/59/56 62/61/58 61/62/59
f 6/63/4 4/64/2 36/65/32
f 64/66/60 2/1/1 1/67/61
f 62/61/58 64/66/60 63/68/62
f 21/69/19 63/70/62 13/71/12
f 1/67/61 2/1/1 3/3/3
f 3/3/3 4/2/2 5/5/5
f 5/5/5 6/4/4 7/7/7
f 9/72/63 7/7/7 10/8/8
f 9/72/63 10/8/8 11/10/10
f 11/73/10 12/11/9 13/13/12
f 13/13/12 14/12/11 15/15/14
f 15/15/14 16/14/13 17/17/16
f 19/74/64 17/17/16 20/18/17
f 19/74/64 20/18/17 21/20/19
f 21/20/19 22/19/18 23/22/21
f 23/22/21 24/21/20 25/24/23
f 25/75/23 26/25/22 27/27/25
f 27/27/25 28/26/24 29/29/27
f 29/29/27 30/28/26 31/31/29
f 31/31/29 32/30/28 33/33/31
f 33/33/31 34/32/30 35/35/33
f 35/35/33 36/34/32 37/37/35
f 37/37/35 38/36/34 39/39/37
f 39/39/37 40/38/36 41/41/39
f 41/41/39 42/40/38 43/43/41
f 43/43/41 44/42/40 45/45/43
f 45/45/43 46/44/42 47/47/45
f 47/47/45 48/46/44 49/49/47
f 49/49/47 50/48/46 51/51/49
f 51/51/49 52/50/48 53/53/51
f 53/53/51 54/52/50 55/55/53
f 55/55/53 56/54/52 57/57/55
f 57/76/55 58/58/54 59/60/57
f 59/60/57 60/59/56 61/62/59
f 63/68/62 64/66/60 1/67/61
f 8/77/6 6/63/4 10/78/8
f 12/79/9 10/78/8 14/80/11
f 20/81/17 18/82/15 16/83/13
f 20/81/17 28/84/24 22/85/18
f 24/86/20 22/85/18 26/87/22
f 32/88/28 30/89/26 28/84/24
f 36/65/32 34/90/30 32/88/28
f 38/91/34 48/92/44 44/93/40
f 40/94/36 38/91/34 42/95/38
f 48/92/44 46/96/42 44/93/40
f 52/97/48 50/98/46 48/92/44
f 52/97/48 36/65/32 54/99/50
f 56/100/52 54/99/50 58/101/54
f 64/102/60 62/103/58 60/104/56
f 4/64/2 2/105/1 64/102/60
f 10/78/8 6/63/4 36/65/32
f 38/91/34 44/93/40 42/95/38
f 58/101/54 54/99/50 60/104/56
f 36/65/32 32/88/28 28/84/24
f 38/91/34 36/65/32 52/97/48
f 22/85/18 28/84/24 26/87/22
f 48/92/44 38/91/34 52/97/48
f 4/64/2 64/102/60 60/104/56
f 10/78/8 16/83/13 14/80/11
f 36/65/32 28/84/24 20/81/17
f 61/62/59 62/61/58 63/68/62
f 10/78/8 20/81/17 16/83/13
f 20/81/17 10/78/8 36/65/32
f 54/99/50 36/65/32 60/104/56
f 36/65/32 4/64/2 60/104/56
f 21/69/19 49/65/47 57/106/55
f 61/107/59 63/70/62 59/108/57
f 53/109/51 55/110/53 57/106/55
f 49/65/47 51/91/49 53/109/51
f 63/70/62 1/111/61 3/112/3
f 63/70/62 57/106/55 59/108/57
f 41/113/39 43/114/41 39/115/37
f 33/116/31 35/117/33 37/118/35
f 29/119/27 31/120/29 33/116/31
f 25/121/23 27/122/25 29/119/27
f 21/69/19 23/123/21 25/121/23
f 17/124/16 19/125/64 21/69/19
f 17/124/16 21/69/19 15/126/14
f 9/127/63 11/128/10 13/71/12
f 13/71/12 5/129/5 9/127/63
f 3/112/3 5/129/5 63/70/62
f 49/65/47 53/109/51 57/106/55
f 47/130/45 49/65/47 21/69/19
f 5/129/5 7/131/7 9/127/63
f 33/116/31 47/130/45 29/119/27
f 5/129/5 13/71/12 63/70/62
f 43/114/41 37/118/35 39/115/37
f 37/118/35 43/114/41 47/130/45
f 21/69/19 13/71/12 15/126/14
f 33/116/31 37/118/35 47/130/45
f 29/119/27 47/130/45 25/121/23
f 43/114/41 45/132/43 47/130/45
f 63/70/62 21/69/19 57/106/55
f 25/121/23 47/130/45 21/69/19
