# Blender v2.72 (sub 0) OBJ File: 'exit.blend'
# www.blender.org
o Plane
v -3.440849 -0.000000 2.993210
v 3.435127 -0.000000 2.993210
v -3.440849 -0.000000 -2.993210
v 3.435127 -0.000000 -2.993210
v -3.440849 -0.215618 2.993210
v 3.435127 -0.215618 2.993210
v -3.440849 -0.215618 -2.993210
v 3.435127 -0.215618 -2.993210
v 0.196185 -0.238611 0.123684
vt 0.000100 0.999900
vt 0.999900 0.999900
vt 0.999900 0.000100
vt 0.999981 0.000019
vt 0.000019 0.000019
vt 0.000019 0.036035
vt 0.999981 0.036035
vt 0.000100 0.000100
vn 0.000000 -1.000000 0.000000
vn 0.000000 1.000000 0.000000
vn 0.000000 0.000000 -1.000000
vn 1.000000 0.000000 0.000000
vn 0.000000 0.000000 1.000000
vn -1.000000 0.000000 0.000000
s off
f 3/1/1 4/2/1 2/3/1
f 6/3/2 8/2/2 7/1/2
f 8/4/3 7/5/3 3/6/3
f 6/6/4 8/7/4 4/4/4
f 5/6/5 6/7/5 2/4/5
f 7/4/6 5/5/6 1/6/6
f 1/8/1 3/1/1 2/3/1
f 5/8/2 6/3/2 7/1/2
f 4/7/3 8/4/3 3/6/3
f 2/5/4 6/6/4 4/4/4
f 1/5/5 5/6/5 2/4/5
f 3/7/6 7/4/6 1/6/6
