# Blender v2.72 (sub 0) OBJ File: ''
# www.blender.org
o Wall_Cube.000
v 0.537791 3.045326 -3.045326
v 0.537791 -3.045326 -3.045326
v 0.537791 -3.045326 3.045326
v -0.537791 3.045326 3.045326
v -0.537791 -3.045326 3.045326
v -0.537791 -3.045326 -3.045326
v 0.537791 3.045326 3.045326
v -0.537791 3.045326 -3.045326
vt 1.000000 0.000000
vt 0.000000 -1.000000
vt 1.000000 -1.000000
vt -1.000000 0.000000
vt -1.000000 -1.000000
vt 0.000000 0.000000
vt 0.039666 1.000166
vt 0.000334 0.000166
vt 0.039666 0.000166
vt 0.960071 -0.007992
vt 0.993184 0.992028
vt 0.959736 0.992008
vt 0.002338 0.996941
vt 0.032522 -0.000041
vt 0.032299 0.996953
vt 0.995477 0.006970
vt 0.952679 0.987810
vt 0.952679 0.006970
vt 0.000334 1.000166
vt 0.993520 -0.007972
vt 0.002561 -0.000052
vt 0.995477 0.987810
vn 1.000000 0.000000 0.000000
vn -1.000000 0.000000 0.000000
vn 0.000000 0.000000 -1.000000
vn 0.000000 -0.000000 1.000000
vn 0.000000 -1.000000 -0.000000
vn 0.000000 1.000000 0.000000
s off
f 1/1/1 3/2/1 2/3/1
f 4/4/2 6/2/2 5/5/2
f 7/6/1 3/2/1 1/1/1
f 8/6/2 6/2/2 4/4/2
f 8/7/3 2/8/3 6/9/3
f 7/10/4 5/11/4 3/12/4
f 2/13/5 5/14/5 6/15/5
f 8/16/6 7/17/6 1/18/6
f 1/19/3 2/8/3 8/7/3
f 4/20/4 5/11/4 7/10/4
f 3/21/5 5/14/5 2/13/5
f 4/22/6 7/17/6 8/16/6
