# Blender v2.72 (sub 0) OBJ File: 'hint.blend'
# www.blender.org
o Plane
v -1.000000 0.000000 1.000000
v 1.000000 0.000000 1.000000
v -1.000000 0.000000 -1.000000
v 1.000000 0.000000 -1.000000
v -1.000000 -0.040124 1.000000
v 1.000000 -0.040124 1.000000
v -1.000000 -0.040124 -1.000000
v 1.000000 -0.040124 -1.000000
vt 0.999906 0.000094
vt 0.011632 0.011458
vt 0.031989 0.030429
vt 0.988368 0.993659
vt 0.978931 0.022798
vt 0.002935 0.993659
vt 0.968011 0.974689
vt 0.023910 0.970956
vt 0.000100 0.999900
vt 0.999900 0.999900
vt 0.000100 0.000100
vn 0.000000 0.000000 -1.000000
vn 1.000000 0.000000 0.000000
vn 0.000000 0.000000 1.000000
vn -1.000000 0.000000 0.000000
vn 0.000000 1.000000 0.000000
vn 0.000000 -1.000000 0.000000
s off
f 8/1/1 7/2/1 3/3/1
f 6/4/2 8/1/2 4/5/2
f 5/6/3 6/4/3 2/7/3
f 7/2/4 5/6/4 1/8/4
f 4/5/1 8/1/1 3/3/1
f 2/7/2 6/4/2 4/5/2
f 1/8/3 5/6/3 2/7/3
f 3/3/4 7/2/4 1/8/4
f 3/9/5 2/1/5 4/10/5
f 6/1/6 7/9/6 8/10/6
f 1/11/5 2/1/5 3/9/5
f 5/11/6 7/9/6 6/1/6
