# Blender v2.72 (sub 0) OBJ File: 'movableBlock.blend'
# www.blender.org
o Cube_Cube.001
v -0.781204 -0.781204 0.781204
v -0.781204 -0.781204 -0.781204
v 0.781204 -0.781204 -0.781204
v 0.781204 -0.781204 0.781204
v -0.781204 0.781204 0.781204
v -0.781204 0.781204 -0.781204
v 0.781204 0.781204 -0.781204
v 0.781204 0.781204 0.781204
vt 0.004724 0.007107
vt 0.995276 0.007107
vt 0.995276 0.997658
vt 0.008245 0.004505
vt 0.994929 0.004505
vt 0.994930 0.991189
vt 0.011069 0.007349
vt 0.992064 0.007349
vt 0.992064 0.988345
vt 0.001602 0.000731
vt 0.999816 0.001904
vt 1.000026 0.998811
vt 0.006324 0.995789
vt 0.006324 0.008395
vt 0.993718 0.008394
vt 0.005204 0.997859
vt 0.005204 0.005051
vt 0.998012 0.005050
vt 0.998012 0.997858
vt 0.004724 0.997658
vt 0.008245 0.991189
vt 0.011069 0.988345
vt 0.001813 0.999704
vt 0.993718 0.995789
vn -1.000000 0.000000 0.000000
vn 0.000000 0.000000 -1.000000
vn 1.000000 0.000000 0.000000
vn 0.000000 0.000000 1.000000
vn 0.000000 -1.000000 0.000000
vn 0.000000 1.000000 0.000000
s off
f 6/1/1 2/2/1 1/3/1
f 7/4/2 3/5/2 2/6/2
f 8/7/3 4/8/3 3/9/3
f 5/10/4 1/11/4 4/12/4
f 2/13/5 3/14/5 4/15/5
f 7/16/6 6/17/6 5/18/6
f 8/19/6 7/16/6 5/18/6
f 5/20/1 6/1/1 1/3/1
f 6/21/2 7/4/2 2/6/2
f 7/22/3 8/7/3 3/9/3
f 8/23/4 5/10/4 4/12/4
f 1/24/5 2/13/5 4/15/5
