# Blender v2.72 (sub 0) OBJ File: 'torch.blend'
# www.blender.org
o Cylinder
v 0.000000 0.011815 -0.121572
v 0.023715 0.011815 -0.119227
v 0.046524 0.011815 -0.112303
v 0.067552 0.011815 -0.101069
v 0.085979 0.011815 -0.085979
v 0.101069 0.011815 -0.067552
v 0.112303 0.011815 -0.046523
v 0.119227 0.011815 -0.023714
v 0.121572 0.011815 -0.000000
v 0.119227 0.011815 0.023714
v 0.112303 0.011815 0.046523
v 0.101069 0.011815 0.067552
v 0.085979 0.011815 0.085979
v 0.067552 0.011815 0.101069
v 0.046523 0.011815 0.112303
v 0.023714 0.011815 0.119227
v -0.000000 0.011815 0.121572
v -0.023715 0.011815 0.119227
v -0.046524 0.011815 0.112303
v -0.067553 0.011815 0.101069
v -0.085980 0.011815 0.085979
v -0.101070 0.011815 0.067552
v -0.112303 0.011815 0.046523
v -0.119227 0.011815 0.023714
v -0.121572 0.011815 -0.000001
v -0.119227 0.011815 -0.023715
v -0.112303 0.011815 -0.046524
v -0.101069 0.011815 -0.067553
v -0.085979 0.011815 -0.085949
v -0.067551 0.011815 -0.101070
v -0.046522 0.011815 -0.112303
v -0.023713 0.011815 -0.119227
v -0.000000 1.675680 -0.221477
v 0.043188 1.675682 -0.217223
v 0.084756 1.675683 -0.204614
v 0.123084 1.675682 -0.184124
v 0.156611 1.675677 -0.156611
v 0.184124 1.675682 -0.123084
v 0.204614 1.675683 -0.084756
v 0.217223 1.675682 -0.043188
v 0.221477 1.675681 -0.000000
v 0.217223 1.675682 0.043188
v 0.204615 1.675683 0.084756
v 0.184124 1.675682 0.123084
v 0.156611 1.675677 0.156611
v 0.123084 1.675682 0.184124
v 0.084756 1.675683 0.204614
v 0.043188 1.675682 0.217223
v -0.000000 1.675681 0.221477
v -0.043188 1.675682 0.217223
v -0.084756 1.675683 0.204614
v -0.123084 1.675682 0.184123
v -0.156611 1.675677 0.156611
v -0.184123 1.675682 0.123084
v -0.204614 1.675683 0.084756
v -0.217223 1.675682 0.043188
v -0.221477 1.675681 0.000000
v -0.217223 1.675682 -0.043188
v -0.204614 1.675683 -0.084756
v -0.184140 1.675681 -0.123061
v -0.156605 1.675681 -0.156610
v -0.123056 1.675681 -0.184143
v -0.084756 1.675683 -0.204614
v -0.043188 1.675682 -0.217223
v -0.000000 1.947950 -0.335566
v -0.000000 1.981150 -0.313345
v 0.065442 1.947954 -0.329120
v 0.061108 1.981122 -0.307326
v 0.128419 1.947953 -0.310019
v 0.119914 1.981152 -0.289490
v 0.186472 1.947957 -0.278979
v 0.174126 1.981085 -0.260503
v 0.237285 1.947943 -0.237285
v 0.221572 1.981204 -0.221572
v 0.278979 1.947957 -0.186472
v 0.260503 1.981086 -0.174126
v 0.310019 1.947953 -0.128419
v 0.289490 1.981151 -0.119914
v 0.329120 1.947954 -0.065442
v 0.307326 1.981122 -0.061107
v 0.335566 1.947950 0.000000
v 0.313345 1.981150 0.000000
v 0.329120 1.947954 0.065442
v 0.307326 1.981122 0.061107
v 0.310020 1.947952 0.128419
v 0.289491 1.981152 0.119914
v 0.278979 1.947957 0.186472
v 0.260503 1.981085 0.174126
v 0.237285 1.947943 0.237285
v 0.221572 1.981204 0.221572
v 0.186472 1.947957 0.278979
v 0.174126 1.981086 0.260503
v 0.128419 1.947953 0.310020
v 0.119914 1.981151 0.289490
v 0.065442 1.947954 0.329120
v 0.061108 1.981122 0.307326
v 0.000000 1.947950 0.335566
v 0.000000 1.981150 0.313345
v -0.065442 1.947954 0.329120
v -0.061107 1.981123 0.307326
v -0.128419 1.947953 0.310020
v -0.119914 1.981151 0.289490
v -0.186472 1.947957 0.278979
v -0.174126 1.981086 0.260503
v -0.237285 1.947943 0.237285
v -0.221572 1.981203 0.221572
v -0.278979 1.947957 0.186472
v -0.260503 1.981086 0.174126
v -0.310019 1.947953 0.128420
v -0.289490 1.981151 0.119915
v -0.329120 1.947954 0.065443
v -0.307326 1.981123 0.061108
v -0.335566 1.947951 0.000000
v -0.313345 1.981149 0.000000
v -0.329120 1.947954 -0.065442
v -0.307326 1.981127 -0.061107
v -0.310020 1.947954 -0.128415
v -0.289490 1.981131 -0.119911
v -0.279000 1.947952 -0.186447
v -0.260524 1.981136 -0.174101
v -0.237275 1.947951 -0.237286
v -0.221562 1.981138 -0.221573
v -0.186439 1.947953 -0.279005
v -0.174094 1.981137 -0.260529
v -0.128415 1.947954 -0.310020
v -0.119911 1.981128 -0.289490
v -0.065442 1.947953 -0.329120
v -0.061107 1.981129 -0.307326
v 0.000000 1.926806 -0.174476
v 0.034026 1.926790 -0.171123
v 0.066770 1.926806 -0.161192
v 0.096955 1.926769 -0.145050
v 0.123377 1.926835 -0.123377
v 0.145051 1.926770 -0.096955
v 0.161192 1.926806 -0.066770
v 0.171123 1.926790 -0.034025
v 0.174476 1.926805 0.000000
v 0.171123 1.926790 0.034025
v 0.161193 1.926807 0.066770
v 0.145050 1.926769 0.096955
v 0.123377 1.926835 0.123377
v 0.096955 1.926770 0.145050
v 0.066770 1.926806 0.161192
v 0.034026 1.926790 0.171123
v 0.000000 1.926805 0.174476
v -0.034025 1.926790 0.171123
v -0.066770 1.926806 0.161193
v -0.096955 1.926770 0.145051
v -0.123377 1.926835 0.123377
v -0.145050 1.926770 0.096955
v -0.161192 1.926806 0.066770
v -0.171123 1.926790 0.034026
v -0.174475 1.926805 0.000000
v -0.171123 1.926793 -0.034025
v -0.161192 1.926795 -0.066768
v -0.145064 1.926797 -0.096942
v -0.123369 1.926799 -0.123375
v -0.096938 1.926798 -0.145066
v -0.066768 1.926793 -0.161192
v -0.034025 1.926794 -0.171123
vt 0.000000 0.000000
vt 1.000000 0.000000
vt 1.000000 1.000000
vn -0.090500 -0.384900 -0.918500
vn 0.435100 -0.384900 -0.814000
vn 0.585400 -0.384900 -0.713500
vn 0.713600 -0.384900 -0.585400
vn 0.813900 -0.384900 -0.435200
vn 0.883200 -0.384900 -0.267900
vn 0.918500 -0.384900 -0.090500
vn 0.918500 -0.384900 0.090500
vn 0.883200 -0.384900 0.267900
vn 0.814000 -0.384900 0.435100
vn 0.713500 -0.384900 0.585400
vn 0.585400 -0.384900 0.713600
vn 0.435200 -0.384900 0.813900
vn 0.267900 -0.384900 0.883200
vn 0.090500 -0.384900 0.918500
vn -0.090500 -0.384900 0.918500
vn -0.267900 -0.384900 0.883200
vn -0.435100 -0.384900 0.814000
vn -0.585400 -0.384900 0.713500
vn -0.713600 -0.384900 0.585400
vn -0.813900 -0.384900 0.435200
vn -0.883200 -0.384900 0.267900
vn -0.918500 -0.384900 0.090500
vn -0.918500 -0.384900 -0.090500
vn -0.883200 -0.384900 -0.267900
vn -0.814000 -0.384900 -0.435100
vn -0.713500 -0.384900 -0.585500
vn -0.585500 -0.384900 -0.713500
vn -0.435100 -0.384900 -0.814000
vn -0.267900 -0.384900 -0.883200
vn 0.267900 -0.384900 -0.883200
vn 0.350000 0.930600 -0.106600
vn 0.000000 -1.000000 -0.000000
vn 0.097900 -0.059600 -0.993400
vn 0.289800 -0.059700 -0.955200
vn 0.470600 -0.059600 -0.880300
vn 0.632400 -0.059600 -0.772300
vn 0.771700 -0.059700 -0.633200
vn 0.880500 -0.059700 -0.470300
vn 0.955200 -0.059700 -0.289800
vn 0.993400 -0.059600 -0.097800
vn 0.993400 -0.059700 0.097800
vn 0.955200 -0.059700 0.289700
vn 0.880300 -0.059600 0.470600
vn 0.772300 -0.059600 0.632400
vn 0.633200 -0.059700 0.771700
vn 0.470600 -0.059700 0.880300
vn 0.289800 -0.059700 0.955200
vn 0.097800 -0.059600 0.993400
vn -0.097800 -0.059600 0.993400
vn -0.289800 -0.059700 0.955200
vn -0.470600 -0.059600 0.880300
vn -0.632400 -0.059600 0.772300
vn -0.771700 -0.059700 0.633200
vn -0.880500 -0.059700 0.470300
vn -0.955200 -0.059700 0.289800
vn -0.993400 -0.059600 0.097800
vn -0.993400 -0.059600 -0.097800
vn -0.955200 -0.059700 -0.289800
vn -0.880500 -0.059600 -0.470400
vn -0.771600 -0.059700 -0.633300
vn -0.633300 -0.059700 -0.771600
vn -0.470500 -0.059700 -0.880400
vn -0.097900 -0.059600 -0.993400
vn -0.289800 -0.059700 -0.955200
vn 0.081800 0.554400 -0.828200
vn 0.241300 0.554400 -0.796500
vn 0.393000 0.554300 -0.733700
vn 0.527400 0.553600 -0.644500
vn 0.644500 0.553600 -0.527400
vn 0.733700 0.554400 -0.393000
vn 0.796500 0.554400 -0.241300
vn 0.828200 0.554400 -0.081800
vn 0.828200 0.554400 0.081800
vn 0.796500 0.554300 0.241300
vn 0.733700 0.554300 0.393000
vn 0.644500 0.553600 0.527400
vn 0.527400 0.553600 0.644500
vn 0.393000 0.554400 0.733700
vn 0.241300 0.554400 0.796500
vn 0.081800 0.554400 0.828200
vn -0.081800 0.554400 0.828200
vn -0.241300 0.554400 0.796500
vn -0.393000 0.554300 0.733700
vn -0.527400 0.553600 0.644500
vn -0.644500 0.553600 0.527400
vn -0.733700 0.554400 0.393000
vn -0.796500 0.554400 0.241300
vn -0.828200 0.554400 0.081800
vn -0.828200 0.554400 -0.081800
vn -0.796300 0.554600 -0.241500
vn -0.733900 0.554600 -0.392200
vn -0.643300 0.554500 -0.527900
vn -0.527900 0.554500 -0.643300
vn -0.392200 0.554500 -0.733900
vn -0.241500 0.554700 -0.796300
vn -0.081800 0.554400 -0.828300
vn 0.090500 -0.384900 -0.918500
vn 0.000000 1.000000 0.000000
vn -0.035500 0.930600 0.364200
vn -0.281800 0.930600 -0.233500
vn 0.350100 0.930700 0.106300
vn -0.233500 0.930600 0.281800
vn -0.106600 0.930600 -0.350000
vn 0.232100 0.930600 0.282900
vn 0.106600 0.930600 -0.350000
vn -0.350000 0.930600 0.106600
vn 0.281800 0.930600 -0.233400
vn -0.350000 0.930600 -0.106600
vn 0.364200 0.930600 -0.035500
vn -0.106600 0.930600 0.350000
vn -0.233500 0.930600 -0.281800
vn 0.322700 0.930700 0.172500
vn -0.281800 0.930600 0.233500
vn -0.035500 0.930600 -0.364200
vn 0.172600 0.930700 0.322600
vn 0.171700 0.930700 -0.323100
vn -0.364200 0.930600 0.035500
vn 0.323100 0.930700 -0.171700
vn -0.323100 0.930700 -0.171600
vn 0.364200 0.930600 0.035600
vn -0.171600 0.930700 0.323100
vn -0.171700 0.930700 -0.323100
vn 0.035600 0.930600 0.364200
vn 0.282800 0.930600 0.232200
vn 0.035500 0.930600 -0.364200
vn -0.323100 0.930700 0.171700
vn 0.106200 0.930700 0.350100
vn 0.233400 0.930600 -0.281800
vn -0.364200 0.930600 -0.035500
vn 0.771700 -0.059700 0.633200
vn 0.713500 -0.384900 -0.585400
vn 0.713600 -0.384900 0.585400
vn 0.435100 -0.384900 0.814000
vn -0.435200 -0.384900 0.813900
vn -0.643200 0.554600 -0.527900
vn -0.713500 -0.384900 0.585400
vn -0.585400 -0.384900 0.713600
vn 0.633200 -0.059700 -0.771700
vn -0.814000 -0.384900 0.435100
vn 0.585400 -0.384900 0.713500
vn 0.814000 -0.384900 -0.435100
vn -0.796300 0.554700 -0.241500
vn 0.796200 0.554700 -0.241500
vn -0.880300 -0.059700 -0.470600
vn 0.290000 -0.059700 -0.955200
vn 0.098200 -0.059700 -0.993400
vn -0.470300 -0.059600 -0.880500
vn 0.772300 -0.059600 -0.632400
vn -0.633200 -0.059700 0.771700
vn 0.470300 -0.059700 -0.880500
vn 0.955200 -0.059700 -0.290000
vn 0.993400 -0.059700 -0.098200
vn 0.993400 -0.059600 0.098200
vn 0.955200 -0.059700 0.290000
vn -0.633200 -0.059600 -0.771700
vn 0.813900 -0.384900 0.435200
vn 0.435200 -0.384900 -0.813900
vn 0.470300 -0.059600 0.880500
vn 0.290000 -0.059700 0.955200
vn 0.098200 -0.059700 0.993400
vn -0.098200 -0.059700 0.993400
vn -0.290000 -0.059600 0.955200
vn -0.772300 -0.059600 0.632400
vn 0.632400 -0.059600 0.772300
vn -0.470300 -0.059700 0.880500
vn -0.955200 -0.059700 0.290000
vn -0.993400 -0.059700 0.098200
vn -0.993400 -0.059700 -0.098200
vn -0.955200 -0.059600 -0.290000
vn 0.880300 -0.059600 -0.470600
vn -0.771800 -0.059600 -0.633100
vn -0.880300 -0.059600 0.470600
vn 0.880500 -0.059700 0.470300
vn -0.098200 -0.059700 -0.993400
vn -0.290000 -0.059700 -0.955200
vn 0.392100 0.555200 0.733500
vn 0.642900 0.555200 0.527700
vn -0.527700 0.555200 0.642900
vn -0.392100 0.555200 0.733500
vn -0.241500 0.554700 0.796200
vn -0.081500 0.554700 0.828000
vn 0.828000 0.554700 -0.081500
vn 0.081500 0.554700 0.828000
vn 0.392100 0.555200 -0.733500
vn 0.527700 0.555200 0.642900
vn 0.642900 0.555200 -0.527700
vn -0.733500 0.555200 0.392100
vn -0.796200 0.554700 0.241500
vn 0.796200 0.554700 0.241500
vn 0.241500 0.554700 0.796200
vn -0.035400 0.930600 0.364200
vn -0.642900 0.555200 0.527700
vn 0.733500 0.555200 -0.392100
vn 0.035500 0.930600 0.364200
vn 0.585400 -0.384900 -0.713600
vn -0.241500 0.554700 -0.796200
vn 0.322700 0.930600 0.172600
vn -0.713400 -0.384900 -0.585500
vn -0.828100 0.554700 -0.081500
vn -0.002800 1.000000 0.007600
vn -0.013900 0.999800 0.013900
vn -0.007300 1.000000 0.002700
vn -0.004600 1.000000 0.000000
vn -0.007600 1.000000 -0.002800
vn -0.013900 0.999800 -0.013900
vn -0.002700 1.000000 -0.007300
vn -0.000000 1.000000 -0.004600
vn 0.002700 1.000000 -0.007200
vn 0.013700 0.999800 -0.013800
vn 0.007300 1.000000 -0.002700
vn 0.003900 1.000000 0.000000
vn 0.000200 1.000000 0.000100
vn 0.000200 1.000000 0.000200
vn 0.000100 1.000000 0.004100
vn -0.000800 1.000000 0.000000
vn 0.000000 1.000000 -0.000800
vn 0.000100 1.000000 0.000700
vn 0.000700 1.000000 0.000000
vn 0.000400 1.000000 0.000400
vn 0.000100 1.000000 0.000100
vn 0.000100 1.000000 0.000400
vn -0.828000 0.554700 0.081500
vn 0.527700 0.555200 -0.642900
vn 0.081500 0.554700 -0.828000
vn 0.828000 0.554700 0.081500
vn 0.241500 0.554700 -0.796200
vn 0.233500 0.930600 -0.281800
vn -0.733800 0.554600 -0.392300
vn -0.364200 0.930600 -0.035400
vn -0.392200 0.554700 -0.733800
vn 0.323100 0.930700 -0.171600
vn -0.323100 0.930700 0.171600
vn -0.081500 0.554600 -0.828100
vn -0.171600 0.930700 -0.323100
vn 0.364200 0.930600 0.035500
vn 0.733500 0.555200 0.392100
vn 0.281800 0.930600 -0.233500
s off
f 33/1/1 64/2/1 65/3/1
f 36/1/2 35/2/2 71/3/2
f 37/1/3 36/2/3 73/3/3
f 75/1/4 38/2/4 73/3/4
f 77/1/5 39/2/5 75/3/5
f 40/1/6 39/2/6 79/3/6
f 41/1/7 40/2/7 81/3/7
f 83/1/8 42/2/8 81/3/8
f 85/1/9 43/2/9 83/3/9
f 44/1/10 43/2/10 87/3/10
f 45/1/11 44/2/11 89/3/11
f 91/1/12 46/2/12 89/3/12
f 93/1/13 47/2/13 91/3/13
f 48/1/14 47/2/14 95/3/14
f 49/1/15 48/2/15 97/3/15
f 99/1/16 50/2/16 97/3/16
f 101/1/17 51/2/17 99/3/17
f 52/1/18 51/2/18 103/3/18
f 53/1/19 52/2/19 105/3/19
f 107/1/20 54/2/20 105/3/20
f 109/1/21 55/2/21 107/3/21
f 56/1/22 55/2/22 111/3/22
f 57/1/23 56/2/23 113/3/23
f 115/1/24 58/2/24 113/3/24
f 117/1/25 59/2/25 115/3/25
f 60/1/26 59/2/26 119/3/26
f 61/1/27 60/2/27 121/3/27
f 123/1/28 62/2/28 121/3/28
f 125/1/29 63/2/29 123/3/29
f 64/1/30 63/2/30 127/3/30
f 69/1/31 35/2/31 67/3/31
f 152/1/32 112/2/32 151/3/32
f 3/1/33 7/2/33 11/3/33
f 1/1/34 33/2/34 34/3/34
f 34/1/35 35/2/35 3/3/35
f 36/1/36 4/2/36 35/3/36
f 5/1/37 4/2/37 37/3/37
f 38/1/38 6/2/38 37/3/38
f 7/1/39 6/2/39 39/3/39
f 39/1/40 40/2/40 8/3/40
f 40/1/41 41/2/41 9/3/41
f 41/1/42 42/2/42 10/3/42
f 42/1/43 43/2/43 11/3/43
f 44/1/44 12/2/44 43/3/44
f 13/1/45 12/2/45 45/3/45
f 46/1/46 14/2/46 45/3/46
f 46/1/47 47/2/47 15/3/47
f 47/1/48 48/2/48 16/3/48
f 48/1/49 49/2/49 17/3/49
f 17/1/50 49/2/50 50/3/50
f 50/1/51 51/2/51 19/3/51
f 52/1/52 20/2/52 51/3/52
f 21/1/53 20/2/53 53/3/53
f 54/1/54 22/2/54 53/3/54
f 23/1/55 22/2/55 55/3/55
f 55/1/56 56/2/56 24/3/56
f 56/1/57 57/2/57 25/3/57
f 25/1/58 57/2/58 58/3/58
f 58/1/59 59/2/59 27/3/59
f 28/1/60 27/2/60 60/3/60
f 28/1/61 60/2/61 61/3/61
f 62/1/62 30/2/62 61/3/62
f 63/1/63 31/2/63 62/3/63
f 64/1/64 33/2/64 1/3/64
f 63/1/65 64/2/65 32/3/65
f 66/1/66 68/2/66 65/3/66
f 70/1/67 69/2/67 68/3/67
f 70/1/68 72/2/68 69/3/68
f 74/1/69 73/2/69 72/3/69
f 74/1/70 76/2/70 73/3/70
f 78/1/71 77/2/71 76/3/71
f 78/1/72 80/2/72 77/3/72
f 82/1/73 81/2/73 80/3/73
f 82/1/74 84/2/74 81/3/74
f 86/1/75 85/2/75 84/3/75
f 86/1/76 88/2/76 85/3/76
f 90/1/77 89/2/77 88/3/77
f 90/1/78 92/2/78 89/3/78
f 94/1/79 93/2/79 92/3/79
f 94/1/80 96/2/80 93/3/80
f 98/1/81 97/2/81 96/3/81
f 98/1/82 100/2/82 97/3/82
f 102/1/83 101/2/83 100/3/83
f 102/1/84 104/2/84 101/3/84
f 106/1/85 105/2/85 104/3/85
f 106/1/86 108/2/86 105/3/86
f 110/1/87 109/2/87 108/3/87
f 110/1/88 112/2/88 109/3/88
f 114/1/89 113/2/89 112/3/89
f 114/1/90 116/2/90 113/3/90
f 118/1/91 117/2/91 116/3/91
f 120/1/92 119/2/92 118/3/92
f 122/1/93 121/2/93 120/3/93
f 121/1/94 122/2/94 124/3/94
f 124/1/95 126/2/95 123/3/95
f 128/1/96 127/2/96 126/3/96
f 66/1/97 65/2/97 128/3/97
f 67/1/98 34/2/98 65/3/98
f 132/1/99 148/2/99 140/3/99
f 130/1/100 68/2/100 129/3/100
f 140/1/101 141/2/101 88/3/101
f 154/1/102 155/2/102 116/3/102
f 132/1/103 133/2/103 72/3/103
f 144/1/104 96/2/104 143/3/104
f 158/1/105 124/2/105 157/3/105
f 146/1/106 147/2/106 100/3/106
f 136/1/107 80/2/107 135/3/107
f 150/1/108 108/2/108 149/3/108
f 138/1/109 139/2/109 84/3/109
f 152/1/110 153/2/110 112/3/110
f 130/1/111 131/2/111 68/3/111
f 142/1/112 92/2/112 141/3/112
f 155/1/113 156/2/113 118/3/113
f 134/1/114 76/2/114 133/3/114
f 144/1/115 145/2/115 96/3/115
f 159/1/116 126/2/116 158/3/116
f 148/1/117 104/2/117 147/3/117
f 136/1/118 137/2/118 80/3/118
f 150/1/119 151/2/119 108/3/119
f 140/1/120 88/2/120 139/3/120
f 154/1/121 116/2/121 153/3/121
f 132/1/122 72/2/122 131/3/122
f 142/1/123 143/2/123 92/3/123
f 160/1/124 129/2/124 128/3/124
f 156/1/125 157/2/125 120/3/125
f 146/1/126 100/2/126 145/3/126
f 134/1/127 135/2/127 76/3/127
f 159/1/128 160/2/128 126/3/128
f 148/1/129 149/2/129 104/3/129
f 138/1/130 84/2/130 137/3/130
f 48/1/15 95/2/15 97/3/15
f 12/1/131 44/2/131 45/3/131
f 38/1/132 37/2/132 73/3/132
f 44/1/133 87/2/133 89/3/133
f 47/1/134 46/2/134 91/3/134
f 51/1/135 101/2/135 103/3/135
f 121/1/136 119/2/136 120/3/136
f 64/1/1 127/2/1 65/3/1
f 55/1/22 109/2/22 111/3/22
f 27/1/33 31/2/33 3/3/33
f 54/1/137 53/2/137 105/3/137
f 52/1/138 103/2/138 105/3/138
f 4/1/139 36/2/139 37/3/139
f 39/1/6 77/2/6 79/3/6
f 50/1/16 49/2/16 97/3/16
f 40/1/7 79/2/7 81/3/7
f 35/1/31 34/2/31 67/3/31
f 55/1/140 54/2/140 107/3/140
f 126/1/116 124/2/116 158/3/116
f 46/1/141 45/2/141 89/3/141
f 39/1/142 38/2/142 75/3/142
f 47/1/14 93/2/14 95/3/14
f 58/1/24 57/2/24 113/3/24
f 63/1/29 62/2/29 123/3/29
f 51/1/17 50/2/17 99/3/17
f 124/1/105 122/2/105 157/3/105
f 59/1/25 58/2/25 115/3/25
f 63/1/30 125/2/30 127/3/30
f 59/1/26 117/2/26 119/3/26
f 117/1/143 115/2/143 116/3/143
f 43/1/9 42/2/9 83/3/9
f 80/1/144 79/2/144 77/3/144
f 19/1/33 15/2/33 16/3/33
f 31/1/33 27/2/33 30/3/33
f 29/1/33 30/2/33 28/3/33
f 27/1/33 24/2/33 26/3/33
f 11/1/33 7/2/33 8/3/33
f 23/1/33 19/2/33 22/3/33
f 21/1/33 22/2/33 20/3/33
f 19/1/33 16/2/33 18/3/33
f 27/1/33 23/2/33 24/3/33
f 15/1/33 11/2/33 14/3/33
f 13/1/33 14/2/33 12/3/33
f 11/1/33 8/2/33 10/3/33
f 27/1/33 3/2/33 19/3/33
f 7/1/33 4/2/33 6/3/33
f 27/1/33 19/2/33 23/3/33
f 3/1/33 32/2/33 2/3/33
f 32/1/33 1/2/33 2/3/33
f 15/1/33 19/2/33 11/3/33
f 24/1/33 25/2/33 26/3/33
f 27/1/145 59/2/145 60/3/145
f 16/1/33 17/2/33 18/3/33
f 7/1/33 3/2/33 4/3/33
f 8/1/33 9/2/33 10/3/33
f 4/1/33 5/2/33 6/3/33
f 3/1/33 11/2/33 19/3/33
f 22/1/33 19/2/33 20/3/33
f 14/1/33 11/2/33 12/3/33
f 2/1/146 34/2/146 3/3/146
f 2/1/147 1/2/147 34/3/147
f 30/1/33 27/2/33 28/3/33
f 3/1/33 31/2/33 32/3/33
f 31/1/148 30/2/148 62/3/148
f 6/1/149 5/2/149 37/3/149
f 20/1/150 52/2/150 53/3/150
f 4/1/151 3/2/151 35/3/151
f 7/1/152 39/2/152 8/3/152
f 8/1/153 40/2/153 9/3/153
f 9/1/154 41/2/154 10/3/154
f 10/1/155 42/2/155 11/3/155
f 30/1/156 29/2/156 61/3/156
f 43/1/157 85/2/157 87/3/157
f 35/1/158 69/2/158 71/3/158
f 14/1/159 46/2/159 15/3/159
f 15/1/160 47/2/160 16/3/160
f 16/1/161 48/2/161 17/3/161
f 18/1/162 17/2/162 50/3/162
f 18/1/163 50/2/163 19/3/163
f 22/1/164 21/2/164 53/3/164
f 14/1/165 13/2/165 45/3/165
f 20/1/166 19/2/166 51/3/166
f 23/1/167 55/2/167 24/3/167
f 24/1/168 56/2/168 25/3/168
f 26/1/169 25/2/169 58/3/169
f 26/1/170 58/2/170 27/3/170
f 6/1/171 38/2/171 39/3/171
f 29/1/172 28/2/172 61/3/172
f 22/1/173 54/2/173 55/3/173
f 12/1/174 11/2/174 43/3/174
f 32/1/175 64/2/175 1/3/175
f 31/1/176 63/2/176 32/3/176
f 153/1/110 114/2/110 112/3/110
f 96/1/104 94/2/104 143/3/104
f 93/1/177 91/2/177 92/3/177
f 89/1/178 87/2/178 88/3/178
f 105/1/179 103/2/179 104/3/179
f 104/1/180 103/2/180 101/3/180
f 101/1/181 99/2/181 100/3/181
f 100/1/182 99/2/182 97/3/182
f 81/1/183 79/2/183 80/3/183
f 97/1/184 95/2/184 96/3/184
f 72/1/185 71/2/185 69/3/185
f 92/1/186 91/2/186 89/3/186
f 76/1/187 75/2/187 73/3/187
f 109/1/188 107/2/188 108/3/188
f 112/1/189 111/2/189 109/3/189
f 147/1/106 102/2/106 100/3/106
f 85/1/190 83/2/190 84/3/190
f 96/1/191 95/2/191 93/3/191
f 68/1/192 66/2/192 129/3/192
f 108/1/193 107/2/193 105/3/193
f 88/1/120 86/2/120 139/3/120
f 77/1/194 75/2/194 76/3/194
f 129/1/195 66/2/195 128/3/195
f 80/1/107 78/2/107 135/3/107
f 36/1/196 71/2/196 73/3/196
f 127/1/197 125/2/197 126/3/197
f 34/1/98 33/2/98 65/3/98
f 56/1/23 111/2/23 113/3/23
f 123/1/94 121/2/94 124/3/94
f 156/1/198 120/2/198 118/3/198
f 60/1/199 119/2/199 121/3/199
f 116/1/200 115/2/200 113/3/200
f 157/1/125 122/2/125 120/3/125
f 132/1/201 131/2/201 130/3/201
f 134/1/202 133/2/202 132/3/202
f 136/1/203 135/2/203 134/3/203
f 138/1/204 137/2/204 136/3/204
f 140/1/205 139/2/205 138/3/205
f 142/1/206 141/2/206 140/3/206
f 144/1/207 143/2/207 142/3/207
f 146/1/208 145/2/208 144/3/208
f 148/1/209 147/2/209 146/3/209
f 150/1/210 149/2/210 148/3/210
f 152/1/211 151/2/211 150/3/211
f 154/1/212 153/2/212 152/3/212
f 155/1/213 154/2/213 150/3/213
f 158/1/214 157/2/214 156/3/214
f 159/1/213 155/2/213 150/3/213
f 130/1/215 129/2/215 160/3/215
f 133/1/103 74/2/103 72/3/103
f 138/1/216 136/2/216 134/3/216
f 138/1/216 134/2/216 140/3/216
f 142/1/217 148/2/217 144/3/217
f 132/1/218 130/2/218 160/3/218
f 154/1/219 152/2/219 150/3/219
f 145/1/115 98/2/115 96/3/115
f 148/1/217 146/2/217 144/3/217
f 150/1/99 148/2/99 132/3/99
f 159/1/220 158/2/220 156/3/220
f 134/1/99 132/2/99 140/3/99
f 159/1/221 150/2/221 132/3/221
f 148/1/99 142/2/99 140/3/99
f 159/1/222 132/2/222 160/3/222
f 155/1/214 159/2/214 156/3/214
f 160/1/128 128/2/128 126/3/128
f 76/1/114 74/2/114 133/3/114
f 113/1/223 111/2/223 112/3/223
f 155/1/102 118/2/102 116/3/102
f 131/1/111 70/2/111 68/3/111
f 112/1/32 110/2/32 151/3/32
f 73/1/224 71/2/224 72/3/224
f 68/1/225 67/2/225 65/3/225
f 84/1/226 83/2/226 81/3/226
f 69/1/227 67/2/227 68/3/227
f 149/1/228 106/2/228 104/3/228
f 119/1/229 117/2/229 118/3/229
f 92/1/112 90/2/112 141/3/112
f 84/1/230 82/2/230 137/3/230
f 126/1/231 125/2/231 123/3/231
f 151/1/232 110/2/232 108/3/232
f 100/1/126 98/2/126 145/3/126
f 135/1/233 78/2/233 76/3/233
f 72/1/122 70/2/122 131/3/122
f 65/1/234 127/2/234 128/3/234
f 143/1/235 94/2/235 92/3/235
f 104/1/117 102/2/117 147/3/117
f 116/1/236 114/2/236 153/3/236
f 42/1/8 41/2/8 81/3/8
f 139/1/109 86/2/109 84/3/109
f 88/1/237 87/2/237 85/3/237
f 62/1/28 61/2/28 121/3/28
f 108/1/238 106/2/238 149/3/238
f 137/1/118 82/2/118 80/3/118
f 141/1/101 90/2/101 88/3/101
