# Blender v2.73 (sub 0) OBJ File: 'torch.blend'
# www.blender.org
o Cylinder
v 0.000000 0.011815 -0.121572
v 0.023715 0.011815 -0.119227
v 0.046524 0.011815 -0.112303
v 0.067552 0.011815 -0.101069
v 0.085979 0.011815 -0.085979
v 0.101069 0.011815 -0.067552
v 0.112303 0.011815 -0.046523
v 0.119227 0.011815 -0.023714
v 0.121572 0.011815 -0.000000
v 0.119227 0.011815 0.023714
v 0.112303 0.011815 0.046523
v 0.101069 0.011815 0.067552
v 0.085979 0.011815 0.085979
v 0.067552 0.011815 0.101069
v 0.046523 0.011815 0.112303
v 0.023714 0.011815 0.119227
v -0.000000 0.011815 0.121572
v -0.023715 0.011815 0.119227
v -0.046524 0.011815 0.112303
v -0.067553 0.011815 0.101069
v -0.085980 0.011815 0.085979
v -0.101070 0.011815 0.067552
v -0.112303 0.011815 0.046523
v -0.119227 0.011815 0.023714
v -0.121572 0.011815 -0.000001
v -0.119227 0.011815 -0.023715
v -0.112303 0.011815 -0.046524
v -0.101069 0.011815 -0.067553
v -0.085979 0.011815 -0.085949
v -0.067551 0.011815 -0.101070
v -0.046522 0.011815 -0.112303
v -0.023713 0.011815 -0.119227
v -0.000000 1.675680 -0.221477
v 0.043188 1.675682 -0.217223
v 0.084756 1.675683 -0.204614
v 0.123084 1.675682 -0.184124
v 0.156611 1.675677 -0.156611
v 0.184124 1.675682 -0.123084
v 0.204614 1.675683 -0.084756
v 0.217223 1.675682 -0.043188
v 0.221477 1.675681 -0.000000
v 0.217223 1.675682 0.043188
v 0.204615 1.675683 0.084756
v 0.184124 1.675682 0.123084
v 0.156611 1.675677 0.156611
v 0.123084 1.675682 0.184124
v 0.084756 1.675683 0.204614
v 0.043188 1.675682 0.217223
v -0.000000 1.675681 0.221477
v -0.043188 1.675682 0.217223
v -0.084756 1.675683 0.204614
v -0.123084 1.675682 0.184123
v -0.156611 1.675677 0.156611
v -0.184123 1.675682 0.123084
v -0.204614 1.675683 0.084756
v -0.217223 1.675682 0.043188
v -0.221477 1.675681 0.000000
v -0.217223 1.675682 -0.043188
v -0.204614 1.675683 -0.084756
v -0.184140 1.675681 -0.123061
v -0.156605 1.675681 -0.156610
v -0.123056 1.675681 -0.184143
v -0.084756 1.675683 -0.204614
v -0.043188 1.675682 -0.217223
v -0.000000 1.947950 -0.335566
v -0.000000 1.981150 -0.313345
v 0.065442 1.947954 -0.329120
v 0.061108 1.981122 -0.307326
v 0.128419 1.947953 -0.310019
v 0.119914 1.981152 -0.289490
v 0.186472 1.947957 -0.278979
v 0.174126 1.981085 -0.260503
v 0.237285 1.947943 -0.237285
v 0.221572 1.981204 -0.221572
v 0.278979 1.947957 -0.186472
v 0.260503 1.981086 -0.174126
v 0.310019 1.947953 -0.128419
v 0.289490 1.981151 -0.119914
v 0.329120 1.947954 -0.065442
v 0.307326 1.981122 -0.061107
v 0.335566 1.947950 0.000000
v 0.313345 1.981150 0.000000
v 0.329120 1.947954 0.065442
v 0.307326 1.981122 0.061107
v 0.310020 1.947952 0.128419
v 0.289491 1.981152 0.119914
v 0.278979 1.947957 0.186472
v 0.260503 1.981085 0.174126
v 0.237285 1.947943 0.237285
v 0.221572 1.981204 0.221572
v 0.186472 1.947957 0.278979
v 0.174126 1.981086 0.260503
v 0.128419 1.947953 0.310020
v 0.119914 1.981151 0.289490
v 0.065442 1.947954 0.329120
v 0.061108 1.981122 0.307326
v 0.000000 1.947950 0.335566
v 0.000000 1.981150 0.313345
v -0.065442 1.947954 0.329120
v -0.061107 1.981123 0.307326
v -0.128419 1.947953 0.310020
v -0.119914 1.981151 0.289490
v -0.186472 1.947957 0.278979
v -0.174126 1.981086 0.260503
v -0.237285 1.947943 0.237285
v -0.221572 1.981203 0.221572
v -0.278979 1.947957 0.186472
v -0.260503 1.981086 0.174126
v -0.310019 1.947953 0.128420
v -0.289490 1.981151 0.119915
v -0.329120 1.947954 0.065443
v -0.307326 1.981123 0.061108
v -0.335566 1.947951 0.000000
v -0.313345 1.981149 0.000000
v -0.329120 1.947954 -0.065442
v -0.307326 1.981127 -0.061107
v -0.310020 1.947954 -0.128415
v -0.289490 1.981131 -0.119911
v -0.279000 1.947952 -0.186447
v -0.260524 1.981136 -0.174101
v -0.237275 1.947951 -0.237286
v -0.221562 1.981138 -0.221573
v -0.186439 1.947953 -0.279005
v -0.174094 1.981137 -0.260529
v -0.128415 1.947954 -0.310020
v -0.119911 1.981128 -0.289490
v -0.065442 1.947953 -0.329120
v -0.061107 1.981129 -0.307326
v 0.000000 1.926806 -0.174476
v 0.034026 1.926790 -0.171123
v 0.066770 1.926806 -0.161192
v 0.096955 1.926769 -0.145050
v 0.123377 1.926835 -0.123377
v 0.145051 1.926770 -0.096955
v 0.161192 1.926806 -0.066770
v 0.171123 1.926790 -0.034025
v 0.174476 1.926805 0.000000
v 0.171123 1.926790 0.034025
v 0.161193 1.926807 0.066770
v 0.145050 1.926769 0.096955
v 0.123377 1.926835 0.123377
v 0.096955 1.926770 0.145050
v 0.066770 1.926806 0.161192
v 0.034026 1.926790 0.171123
v 0.000000 1.926805 0.174476
v -0.034025 1.926790 0.171123
v -0.066770 1.926806 0.161193
v -0.096955 1.926770 0.145051
v -0.123377 1.926835 0.123377
v -0.145050 1.926770 0.096955
v -0.161192 1.926806 0.066770
v -0.171123 1.926790 0.034026
v -0.174475 1.926805 0.000000
v -0.171123 1.926793 -0.034025
v -0.161192 1.926795 -0.066768
v -0.145064 1.926797 -0.096942
v -0.123369 1.926799 -0.123375
v -0.096938 1.926798 -0.145066
v -0.066768 1.926793 -0.161192
v -0.034025 1.926794 -0.171123
vt 0.000000 0.000000
vt 1.000000 0.000000
vt 1.000000 1.000000
vn 0.000000 -0.228700 -0.973500
vn -0.189900 -0.228700 -0.954800
vn 0.000000 0.093700 -0.995600
vn 0.540800 -0.228700 -0.809400
vn 0.372500 -0.228700 -0.899300
vn 0.553100 0.094200 -0.827800
vn 0.688300 -0.228700 -0.688300
vn 0.704000 0.093500 -0.704000
vn 0.827800 0.094100 -0.553100
vn 0.809400 -0.228700 -0.540800
vn 0.919800 0.093800 -0.381100
vn 0.899300 -0.228700 -0.372500
vn 0.954800 -0.228700 -0.189900
vn 0.976400 0.093800 -0.194200
vn 0.973500 -0.228700 0.000000
vn 0.995600 0.093700 0.000000
vn 0.976400 0.093800 0.194200
vn 0.954800 -0.228700 0.189900
vn 0.919800 0.093800 0.381100
vn 0.899300 -0.228700 0.372500
vn 0.809400 -0.228700 0.540800
vn 0.827800 0.094100 0.553100
vn 0.688300 -0.228700 0.688300
vn 0.704000 0.093500 0.704000
vn 0.553100 0.094100 0.827800
vn 0.540800 -0.228700 0.809400
vn 0.381100 0.093800 0.919800
vn 0.372500 -0.228700 0.899300
vn 0.189900 -0.228700 0.954800
vn 0.194200 0.093800 0.976400
vn 0.000000 -0.228700 0.973500
vn 0.000000 0.093700 0.995600
vn -0.194200 0.093800 0.976400
vn -0.189900 -0.228700 0.954800
vn -0.381100 0.093800 0.919800
vn -0.372500 -0.228700 0.899300
vn -0.540800 -0.228700 0.809400
vn -0.553100 0.094100 0.827800
vn -0.688300 -0.228700 0.688300
vn -0.704000 0.093500 0.704000
vn -0.827800 0.094100 0.553100
vn -0.809400 -0.228700 0.540800
vn -0.919800 0.093800 0.381100
vn -0.899300 -0.228700 0.372500
vn -0.954800 -0.228700 0.189900
vn -0.976400 0.093800 0.194200
vn -0.973500 -0.228700 0.000000
vn -0.995600 0.093700 0.000000
vn -0.976400 0.093800 -0.194200
vn -0.954800 -0.228700 -0.189900
vn -0.919800 0.093800 -0.381000
vn -0.899400 -0.228700 -0.372500
vn -0.809400 -0.228700 -0.540800
vn -0.827800 0.093800 -0.553100
vn -0.688300 -0.228700 -0.688300
vn -0.704000 0.093700 -0.704000
vn -0.553100 0.093800 -0.827800
vn -0.540800 -0.228700 -0.809400
vn -0.381000 0.093800 -0.919800
vn -0.372500 -0.228700 -0.899400
vn -0.194200 0.093800 -0.976400
vn 0.381100 0.093800 -0.919800
vn 0.194200 0.093800 -0.976400
vn 0.193200 0.980400 -0.038400
vn -0.327600 0.942500 0.065100
vn 0.185000 0.979700 -0.076300
vn 0.270500 -0.707200 -0.653200
vn 0.653200 -0.707200 -0.270500
vn 0.653200 -0.707200 0.270500
vn 0.000000 -0.707100 -0.707100
vn 0.189900 -0.228700 -0.954800
vn 0.392300 -0.707300 -0.588000
vn 0.500100 -0.707000 -0.500100
vn 0.588000 -0.707300 -0.392300
vn 0.693400 -0.707200 -0.138100
vn 0.707100 -0.707100 0.000000
vn 0.693400 -0.707200 0.138100
vn 0.588000 -0.707300 0.392300
vn 0.500100 -0.707000 0.500100
vn 0.392300 -0.707300 0.588000
vn 0.270500 -0.707200 0.653200
vn 0.138100 -0.707200 0.693400
vn 0.000000 -0.707100 0.707100
vn -0.270500 -0.707200 0.653200
vn -0.392300 -0.707300 0.588000
vn -0.500100 -0.707000 0.500100
vn -0.588000 -0.707300 0.392300
vn -0.653200 -0.707200 0.270500
vn -0.693400 -0.707200 0.138100
vn -0.707100 -0.707100 0.000000
vn -0.653200 -0.707200 -0.270500
vn -0.587900 -0.707200 -0.392700
vn -0.392700 -0.707200 -0.587900
vn -0.270500 -0.707200 -0.653200
vn -0.138100 -0.707200 -0.693400
vn 0.000000 0.942500 -0.334100
vn 0.065100 0.942500 -0.327600
vn 0.128100 0.942500 -0.308500
vn 0.185400 0.942500 -0.277900
vn 0.236300 0.942500 -0.236300
vn 0.277900 0.942500 -0.185400
vn 0.308500 0.942500 -0.128100
vn 0.327600 0.942500 -0.065100
vn 0.334000 0.942500 0.000000
vn 0.327600 0.942500 0.065100
vn 0.308500 0.942500 0.128100
vn 0.277900 0.942500 0.185400
vn 0.236300 0.942500 0.236300
vn 0.185400 0.942500 0.277900
vn 0.128100 0.942500 0.308500
vn 0.065100 0.942500 0.327600
vn 0.000000 0.942500 0.334000
vn -0.065100 0.942500 0.327600
vn -0.128100 0.942500 0.308500
vn -0.185400 0.942500 0.277900
vn -0.236300 0.942500 0.236300
vn -0.277900 0.942500 0.185400
vn -0.308500 0.942500 0.128100
vn -0.334000 0.942500 0.000000
vn -0.327600 0.942600 -0.065200
vn -0.308600 0.942600 -0.127800
vn -0.277700 0.942600 -0.185500
vn -0.236200 0.942500 -0.236200
vn -0.185500 0.942600 -0.277700
vn -0.127800 0.942600 -0.308600
vn -0.065200 0.942600 -0.327600
vn -0.109500 0.980400 0.163500
vn 0.109500 0.980400 -0.163500
vn -0.163500 0.980400 -0.109500
vn -0.038300 0.980400 0.193200
vn 0.000000 0.980100 0.198500
vn -0.145500 0.978600 -0.145500
vn 0.192900 0.980400 0.038300
vn 0.181600 0.980500 0.075300
vn -0.145500 0.978600 0.145500
vn -0.038400 0.980400 -0.193200
vn -0.076300 0.979700 -0.185000
vn 0.109400 0.980400 0.163600
vn 0.139000 0.980500 0.139000
vn 0.038400 0.980400 -0.193200
vn 0.076300 0.979700 -0.185000
vn -0.193200 0.980400 0.038400
vn -0.185000 0.979700 0.076300
vn 0.163500 0.980400 -0.109500
vn 0.145400 0.978600 -0.145400
vn -0.193200 0.980400 -0.038400
vn -0.185200 0.979700 -0.076400
vn 0.198400 0.980100 0.000000
vn -0.076400 0.979700 0.185200
vn -0.109500 0.980400 -0.163500
vn 0.163500 0.980400 0.109300
vn -0.163600 0.980400 0.109500
vn 0.000000 0.980000 -0.198700
vn 0.075300 0.980500 0.181600
vn -0.198700 0.980000 0.000000
vn 0.038300 0.980400 0.193000
vn -0.500000 -0.707100 -0.499900
vn -0.693400 -0.707200 -0.138100
vn -0.138100 -0.707200 0.693400
vn 0.138100 -0.707200 -0.693400
s 1
f 33/1/1 64/2/2 65/3/3
f 36/1/4 35/2/5 71/3/6
f 37/1/7 36/2/4 73/3/8
f 75/1/9 38/2/10 73/3/8
f 77/1/11 39/2/12 75/3/9
f 40/1/13 39/2/12 79/3/14
f 41/1/15 40/2/13 81/3/16
f 83/1/17 42/2/18 81/3/16
f 85/1/19 43/2/20 83/3/17
f 44/1/21 43/2/20 87/3/22
f 45/1/23 44/2/21 89/3/24
f 91/1/25 46/2/26 89/3/24
f 93/1/27 47/2/28 91/3/25
f 48/1/29 47/2/28 95/3/30
f 49/1/31 48/2/29 97/3/32
f 99/1/33 50/2/34 97/3/32
f 101/1/35 51/2/36 99/3/33
f 52/1/37 51/2/36 103/3/38
f 53/1/39 52/2/37 105/3/40
f 107/1/41 54/2/42 105/3/40
f 109/1/43 55/2/44 107/3/41
f 56/1/45 55/2/44 111/3/46
f 57/1/47 56/2/45 113/3/48
f 115/1/49 58/2/50 113/3/48
f 117/1/51 59/2/52 115/3/49
f 60/1/53 59/2/52 119/3/54
f 61/1/55 60/2/53 121/3/56
f 123/1/57 62/2/58 121/3/56
f 125/1/59 63/2/60 123/3/57
f 64/1/2 63/2/60 127/3/61
f 69/1/62 35/2/5 67/3/63
f 152/1/64 112/2/65 151/3/66
f 3/1/67 7/2/68 11/3/69
f 1/1/70 33/2/1 34/3/71
f 34/1/71 35/2/5 3/3/67
f 36/1/4 4/2/72 35/3/5
f 5/1/73 4/2/72 37/3/7
f 38/1/10 6/2/74 37/3/7
f 7/1/68 6/2/74 39/3/12
f 39/1/12 40/2/13 8/3/75
f 40/1/13 41/2/15 9/3/76
f 41/1/15 42/2/18 10/3/77
f 42/1/18 43/2/20 11/3/69
f 44/1/21 12/2/78 43/3/20
f 13/1/79 12/2/78 45/3/23
f 46/1/26 14/2/80 45/3/23
f 46/1/26 47/2/28 15/3/81
f 47/1/28 48/2/29 16/3/82
f 48/1/29 49/2/31 17/3/83
f 17/1/83 49/2/31 50/3/34
f 50/1/34 51/2/36 19/3/84
f 52/1/37 20/2/85 51/3/36
f 21/1/86 20/2/85 53/3/39
f 54/1/42 22/2/87 53/3/39
f 23/1/88 22/2/87 55/3/44
f 55/1/44 56/2/45 24/3/89
f 56/1/45 57/2/47 25/3/90
f 25/1/90 57/2/47 58/3/50
f 58/1/50 59/2/52 27/3/91
f 28/1/92 27/2/91 60/3/53
f 28/1/92 60/2/53 61/3/55
f 62/1/58 30/2/93 61/3/55
f 63/1/60 31/2/94 62/3/58
f 64/1/2 33/2/1 1/3/70
f 63/1/60 64/2/2 32/3/95
f 66/1/96 68/2/97 65/3/3
f 70/1/98 69/2/62 68/3/97
f 70/1/98 72/2/99 69/3/62
f 74/1/100 73/2/8 72/3/99
f 74/1/100 76/2/101 73/3/8
f 78/1/102 77/2/11 76/3/101
f 78/1/102 80/2/103 77/3/11
f 82/1/104 81/2/16 80/3/103
f 82/1/104 84/2/105 81/3/16
f 86/1/106 85/2/19 84/3/105
f 86/1/106 88/2/107 85/3/19
f 90/1/108 89/2/24 88/3/107
f 90/1/108 92/2/109 89/3/24
f 94/1/110 93/2/27 92/3/109
f 94/1/110 96/2/111 93/3/27
f 98/1/112 97/2/32 96/3/111
f 98/1/112 100/2/113 97/3/32
f 102/1/114 101/2/35 100/3/113
f 102/1/114 104/2/115 101/3/35
f 106/1/116 105/2/40 104/3/115
f 106/1/116 108/2/117 105/3/40
f 110/1/118 109/2/43 108/3/117
f 110/1/118 112/2/65 109/3/43
f 114/1/119 113/2/48 112/3/65
f 114/1/119 116/2/120 113/3/48
f 118/1/121 117/2/51 116/3/120
f 120/1/122 119/2/54 118/3/121
f 122/1/123 121/2/56 120/3/122
f 121/1/56 122/2/123 124/3/124
f 124/1/124 126/2/125 123/3/57
f 128/1/126 127/2/61 126/3/125
f 66/1/96 65/2/3 128/3/126
f 67/1/63 34/2/71 65/3/3
f 132/1/127 148/2/128 140/3/129
f 130/1/130 68/2/97 129/3/131
f 140/1/129 141/2/132 88/3/107
f 154/1/133 155/2/134 116/3/120
f 132/1/127 133/2/135 72/3/99
f 144/1/136 96/2/111 143/3/137
f 158/1/138 124/2/124 157/3/139
f 146/1/140 147/2/141 100/3/113
f 136/1/142 80/2/103 135/3/143
f 150/1/144 108/2/117 149/3/145
f 138/1/146 139/2/147 84/3/105
f 152/1/64 153/2/148 112/3/65
f 130/1/130 131/2/149 68/3/97
f 142/1/150 92/2/109 141/3/132
f 155/1/134 156/2/151 118/3/121
f 134/1/152 76/2/101 133/3/135
f 144/1/136 145/2/153 96/3/111
f 159/1/154 126/2/125 158/3/138
f 148/1/128 104/2/115 147/3/141
f 136/1/142 137/2/155 80/3/103
f 150/1/144 151/2/66 108/3/117
f 140/1/129 88/2/107 139/3/147
f 154/1/133 116/2/120 153/3/148
f 132/1/127 72/2/99 131/3/149
f 142/1/150 143/2/137 92/3/109
f 160/1/156 129/2/131 128/3/126
f 156/1/151 157/2/139 120/3/122
f 146/1/140 100/2/113 145/3/153
f 134/1/152 135/2/143 76/3/101
f 159/1/154 160/2/156 126/3/125
f 148/1/128 149/2/145 104/3/115
f 138/1/146 84/2/105 137/3/155
f 48/1/29 95/2/30 97/3/32
f 12/1/78 44/2/21 45/3/23
f 38/1/10 37/2/7 73/3/8
f 44/1/21 87/2/22 89/3/24
f 47/1/28 46/2/26 91/3/25
f 51/1/36 101/2/35 103/3/38
f 121/1/56 119/2/54 120/3/122
f 64/1/2 127/2/61 65/3/3
f 55/1/44 109/2/43 111/3/46
f 27/1/91 31/2/94 3/3/67
f 54/1/42 53/2/39 105/3/40
f 52/1/37 103/2/38 105/3/40
f 4/1/72 36/2/4 37/3/7
f 39/1/12 77/2/11 79/3/14
f 50/1/34 49/2/31 97/3/32
f 40/1/13 79/2/14 81/3/16
f 35/1/5 34/2/71 67/3/63
f 55/1/44 54/2/42 107/3/41
f 126/1/125 124/2/124 158/3/138
f 46/1/26 45/2/23 89/3/24
f 39/1/12 38/2/10 75/3/9
f 47/1/28 93/2/27 95/3/30
f 58/1/50 57/2/47 113/3/48
f 63/1/60 62/2/58 123/3/57
f 51/1/36 50/2/34 99/3/33
f 124/1/124 122/2/123 157/3/139
f 59/1/52 58/2/50 115/3/49
f 63/1/60 125/2/59 127/3/61
f 59/1/52 117/2/51 119/3/54
f 117/1/51 115/2/49 116/3/120
f 43/1/20 42/2/18 83/3/17
f 80/1/103 79/2/14 77/3/11
f 19/1/84 15/2/81 16/3/82
f 31/1/94 27/2/91 30/3/93
f 29/1/157 30/2/93 28/3/92
f 27/1/91 24/2/89 26/3/158
f 11/1/69 7/2/68 8/3/75
f 23/1/88 19/2/84 22/3/87
f 21/1/86 22/2/87 20/3/85
f 19/1/84 16/2/82 18/3/159
f 27/1/91 23/2/88 24/3/89
f 15/1/81 11/2/69 14/3/80
f 13/1/79 14/2/80 12/3/78
f 11/1/69 8/2/75 10/3/77
f 27/1/91 3/2/67 19/3/84
f 7/1/68 4/2/72 6/3/74
f 27/1/91 19/2/84 23/3/88
f 3/1/67 32/2/95 2/3/160
f 32/1/95 1/2/70 2/3/160
f 15/1/81 19/2/84 11/3/69
f 24/1/89 25/2/90 26/3/158
f 27/1/91 59/2/52 60/3/53
f 16/1/82 17/2/83 18/3/159
f 7/1/68 3/2/67 4/3/72
f 8/1/75 9/2/76 10/3/77
f 4/1/72 5/2/73 6/3/74
f 3/1/67 11/2/69 19/3/84
f 22/1/87 19/2/84 20/3/85
f 14/1/80 11/2/69 12/3/78
f 2/1/160 34/2/71 3/3/67
f 2/1/160 1/2/70 34/3/71
f 30/1/93 27/2/91 28/3/92
f 3/1/67 31/2/94 32/3/95
f 31/1/94 30/2/93 62/3/58
f 6/1/74 5/2/73 37/3/7
f 20/1/85 52/2/37 53/3/39
f 4/1/72 3/2/67 35/3/5
f 7/1/68 39/2/12 8/3/75
f 8/1/75 40/2/13 9/3/76
f 9/1/76 41/2/15 10/3/77
f 10/1/77 42/2/18 11/3/69
f 30/1/93 29/2/157 61/3/55
f 43/1/20 85/2/19 87/3/22
f 35/1/5 69/2/62 71/3/6
f 14/1/80 46/2/26 15/3/81
f 15/1/81 47/2/28 16/3/82
f 16/1/82 48/2/29 17/3/83
f 18/1/159 17/2/83 50/3/34
f 18/1/159 50/2/34 19/3/84
f 22/1/87 21/2/86 53/3/39
f 14/1/80 13/2/79 45/3/23
f 20/1/85 19/2/84 51/3/36
f 23/1/88 55/2/44 24/3/89
f 24/1/89 56/2/45 25/3/90
f 26/1/158 25/2/90 58/3/50
f 26/1/158 58/2/50 27/3/91
f 6/1/74 38/2/10 39/3/12
f 29/1/157 28/2/92 61/3/55
f 22/1/87 54/2/42 55/3/44
f 12/1/78 11/2/69 43/3/20
f 32/1/95 64/2/2 1/3/70
f 31/1/94 63/2/60 32/3/95
f 153/1/148 114/2/119 112/3/65
f 96/1/111 94/2/110 143/3/137
f 93/1/27 91/2/25 92/3/109
f 89/1/24 87/2/22 88/3/107
f 105/1/40 103/2/38 104/3/115
f 104/1/115 103/2/38 101/3/35
f 101/1/35 99/2/33 100/3/113
f 100/1/113 99/2/33 97/3/32
f 81/1/16 79/2/14 80/3/103
f 97/1/32 95/2/30 96/3/111
f 72/1/99 71/2/6 69/3/62
f 92/1/109 91/2/25 89/3/24
f 76/1/101 75/2/9 73/3/8
f 109/1/43 107/2/41 108/3/117
f 112/1/65 111/2/46 109/3/43
f 147/1/141 102/2/114 100/3/113
f 85/1/19 83/2/17 84/3/105
f 96/1/111 95/2/30 93/3/27
f 68/1/97 66/2/96 129/3/131
f 108/1/117 107/2/41 105/3/40
f 88/1/107 86/2/106 139/3/147
f 77/1/11 75/2/9 76/3/101
f 129/1/131 66/2/96 128/3/126
f 80/1/103 78/2/102 135/3/143
f 36/1/4 71/2/6 73/3/8
f 127/1/61 125/2/59 126/3/125
f 34/1/71 33/2/1 65/3/3
f 56/1/45 111/2/46 113/3/48
f 123/1/57 121/2/56 124/3/124
f 156/1/151 120/2/122 118/3/121
f 60/1/53 119/2/54 121/3/56
f 116/1/120 115/2/49 113/3/48
f 157/1/139 122/2/123 120/3/122
f 132/1/127 131/2/149 130/3/130
f 134/1/152 133/2/135 132/3/127
f 136/1/142 135/2/143 134/3/152
f 138/1/146 137/2/155 136/3/142
f 140/1/129 139/2/147 138/3/146
f 142/1/150 141/2/132 140/3/129
f 144/1/136 143/2/137 142/3/150
f 146/1/140 145/2/153 144/3/136
f 148/1/128 147/2/141 146/3/140
f 150/1/144 149/2/145 148/3/128
f 152/1/64 151/2/66 150/3/144
f 154/1/133 153/2/148 152/3/64
f 155/1/134 154/2/133 150/3/144
f 158/1/138 157/2/139 156/3/151
f 159/1/154 155/2/134 150/3/144
f 130/1/130 129/2/131 160/3/156
f 133/1/135 74/2/100 72/3/99
f 138/1/146 136/2/142 134/3/152
f 138/1/146 134/2/152 140/3/129
f 142/1/150 148/2/128 144/3/136
f 132/1/127 130/2/130 160/3/156
f 154/1/133 152/2/64 150/3/144
f 145/1/153 98/2/112 96/3/111
f 148/1/128 146/2/140 144/3/136
f 150/1/144 148/2/128 132/3/127
f 159/1/154 158/2/138 156/3/151
f 134/1/152 132/2/127 140/3/129
f 159/1/154 150/2/144 132/3/127
f 148/1/128 142/2/150 140/3/129
f 159/1/154 132/2/127 160/3/156
f 155/1/134 159/2/154 156/3/151
f 160/1/156 128/2/126 126/3/125
f 76/1/101 74/2/100 133/3/135
f 113/1/48 111/2/46 112/3/65
f 155/1/134 118/2/121 116/3/120
f 131/1/149 70/2/98 68/3/97
f 112/1/65 110/2/118 151/3/66
f 73/1/8 71/2/6 72/3/99
f 68/1/97 67/2/63 65/3/3
f 84/1/105 83/2/17 81/3/16
f 69/1/62 67/2/63 68/3/97
f 149/1/145 106/2/116 104/3/115
f 119/1/54 117/2/51 118/3/121
f 92/1/109 90/2/108 141/3/132
f 84/1/105 82/2/104 137/3/155
f 126/1/125 125/2/59 123/3/57
f 151/1/66 110/2/118 108/3/117
f 100/1/113 98/2/112 145/3/153
f 135/1/143 78/2/102 76/3/101
f 72/1/99 70/2/98 131/3/149
f 65/1/3 127/2/61 128/3/126
f 143/1/137 94/2/110 92/3/109
f 104/1/115 102/2/114 147/3/141
f 116/1/120 114/2/119 153/3/148
f 42/1/18 41/2/15 81/3/16
f 139/1/147 86/2/106 84/3/105
f 88/1/107 87/2/22 85/3/19
f 62/1/58 61/2/55 121/3/56
f 108/1/117 106/2/116 149/3/145
f 137/1/155 82/2/104 80/3/103
f 141/1/132 90/2/108 88/3/107
